<?xml version="1.0" encoding="UTF-8"?>
<svg version="1.1" xmlns="http://www.w3.org/2000/svg" width="2816" height="1536">
<path d="M0 0 C929.28 0 1858.56 0 2816 0 C2816 506.88 2816 1013.76 2816 1536 C1886.72 1536 957.44 1536 0 1536 C0 1029.12 0 522.24 0 0 Z " fill="#FBFCFB" transform="translate(0,0)"/>
<path d="M0 0 C5.79578334 3.94021634 9.56187447 8.94612479 13 15 C13.62455078 16.07314453 13.62455078 16.07314453 14.26171875 17.16796875 C18.54625302 25.90240528 18.79530278 37.64994378 15.94140625 46.91015625 C14.48822521 50.73499775 12.99829655 54.44097781 10.78686523 57.89453125 C9.74765134 59.988052 9.74765134 59.988052 10.72827148 62.06103516 C11.18790283 62.79628418 11.64753418 63.5315332 12.12109375 64.2890625 C12.63663818 65.13452637 13.15218262 65.97999023 13.68334961 66.85107422 C14.55165405 68.22416748 14.55165405 68.22416748 15.4375 69.625 C16.65794059 71.61875779 17.87662017 73.61359437 19.09375 75.609375 C20.05861328 77.17848633 20.05861328 77.17848633 21.04296875 78.77929688 C24.26977525 84.08968003 27.34936551 89.48319886 30.4375 94.875 C31.70378559 97.07589004 32.97071394 99.27641039 34.23828125 101.4765625 C34.86299316 102.56098633 35.48770508 103.64541016 36.13134766 104.76269531 C43.10525038 116.8444761 50.14945492 128.88571011 57.24902344 140.89404297 C58.35649634 142.76726709 59.4626619 144.64126488 60.56738281 146.51611328 C62.81607311 150.32932388 65.07126654 154.13491583 67.40234375 157.8984375 C68.05332031 158.96320313 68.70429687 160.02796875 69.375 161.125 C69.91898438 161.99382812 70.46296875 162.86265625 71.0234375 163.7578125 C72 166 72 166 71.859375 168.1015625 C70.84148801 170.3501674 69.68651319 171.57658423 67.875 173.25 C64.5729341 176.39611617 61.60401897 179.70880791 58.67578125 183.203125 C56.92686562 185.07841915 55.06457493 186.48833648 53 188 C37.15774838 161.25285195 21.46478041 134.42475382 5.97265625 107.47314453 C4.6031186 105.09063656 3.23282975 102.70856338 1.86181641 100.3269043 C0.57630819 98.09345619 -0.70795521 95.85929095 -1.99072266 93.62426758 C-4.56223412 89.15734114 -7.14963221 84.72360059 -9.9296875 80.3828125 C-12 77 -12 77 -12 75 C-12.85464844 75.16242188 -13.70929688 75.32484375 -14.58984375 75.4921875 C-17.97054636 75.99561401 -21.14728345 76.13306427 -24.5625 76.125 C-26.20412109 76.12886719 -26.20412109 76.12886719 -27.87890625 76.1328125 C-30.70608913 76.01250685 -33.2510726 75.64499972 -36 75 C-36.21140625 75.78632812 -36.4228125 76.57265625 -36.640625 77.3828125 C-38.46551664 82.23870234 -41.0675086 86.44798427 -43.75 90.875 C-44.93557178 92.85636653 -46.12044401 94.83815178 -47.3046875 96.8203125 C-47.91666992 97.84157227 -48.52865234 98.86283203 -49.15917969 99.91503906 C-52.09817334 104.84038704 -54.98827272 109.79389159 -57.875 114.75 C-58.45427246 115.74330322 -59.03354492 116.73660645 -59.63037109 117.76000977 C-63.90395571 125.09631043 -68.14162489 132.4529487 -72.375 139.8125 C-78.1436046 149.83997183 -84.02128516 159.79831831 -89.93994141 169.73779297 C-95.14564768 178.5033674 -100.21730334 187.33933556 -105.25314331 196.20318604 C-111.33688138 206.90663004 -117.61889466 217.47117618 -124 228 C-109.15 228 -94.3 228 -79 228 C-78.34 226.35 -77.68 224.7 -77 223 C-76.07128577 221.22189957 -75.11186423 219.45963555 -74.12890625 217.7109375 C-73.55889893 216.69596191 -72.9888916 215.68098633 -72.40161133 214.63525391 C-71.79470459 213.55937012 -71.18779785 212.48348633 -70.5625 211.375 C-69.94592529 210.26431152 -69.32935059 209.15362305 -68.6940918 208.00927734 C-65.75452376 202.74143221 -62.76806287 197.55717086 -59.453125 192.515625 C-53.79521548 184.63250841 -53.79521548 184.63250841 -52.40234375 175.4921875 C-53.68018171 172.65501684 -55.09842682 170.44756944 -57 168 C-59.68529918 159.94410245 -59.09574702 150.12999978 -55.5 142.5 C-49.65542963 132.4358683 -41.98485705 126.66161902 -31 123 C-19.70495269 122.02130982 -10.85838362 123.86318432 -1.6875 130.625 C5.17461528 136.4725259 10.39036477 144.55120233 11.25 153.64453125 C11.60491103 162.28439665 9.82321045 169.76518432 5 177 C5.31292601 181.17992229 7.03815224 184.11177839 9.203125 187.640625 C9.85410156 188.71183594 10.50507812 189.78304687 11.17578125 190.88671875 C11.86027344 191.99660156 12.54476563 193.10648438 13.25 194.25 C15.23636558 197.49937259 17.21886734 200.75079685 19.18945312 204.00976562 C20.33548229 205.90250635 21.49412735 207.78771413 22.66992188 209.66210938 C23.14494141 210.44908203 23.61996094 211.23605469 24.109375 212.046875 C24.52670898 212.72073242 24.94404297 213.39458984 25.37402344 214.08886719 C26 216 26 216 25.21069336 218.14453125 C23.91286158 220.13354548 22.53970061 221.62160949 20.8125 223.25 C17.52441905 226.42162808 14.57806236 229.77509847 11.67578125 233.30078125 C9.89556976 235.1058908 8.2741206 235.92753375 6 237 C5.59797363 236.30140869 5.19594727 235.60281738 4.78173828 234.88305664 C3.24125125 232.20709223 1.70011741 229.53150172 0.15847778 226.85620117 C-0.52866265 225.66360215 -1.21561437 224.47089437 -1.90237427 223.27807617 C-5.31348744 217.35435736 -8.72830424 211.43378656 -12.22265625 205.55859375 C-12.9199585 204.38574829 -12.9199585 204.38574829 -13.63134766 203.18920898 C-14.48523709 201.75802644 -15.34283555 200.32904861 -16.20458984 198.90258789 C-19 194.21772093 -19 194.21772093 -19 192 C-22.23902338 191.73201506 -24.92261278 191.90979335 -28 193 C-30.89785128 196.03325753 -32.64883202 199.60360426 -34.5625 203.3125 C-35.76150207 205.49751475 -36.96073042 207.68240534 -38.16015625 209.8671875 C-38.78035645 211.02444336 -39.40055664 212.18169922 -40.03955078 213.37402344 C-43.07062322 219.01434071 -46.27117941 224.55891785 -49.45675659 230.11288452 C-50.47543128 231.89452972 -51.48600701 233.68052829 -52.49438477 235.46801758 C-53.12530029 236.58072021 -53.75621582 237.69342285 -54.40625 238.83984375 C-54.95603516 239.81300537 -55.50582031 240.78616699 -56.07226562 241.78881836 C-56.70841797 242.8485083 -57.34457031 243.90819824 -58 245 C-58.31490387 245.77718887 -58.62980774 246.55437775 -58.95425415 247.3551178 C-60.35421328 250.2553652 -61.48985404 251.95752389 -64 254 C-69.73494859 255.28888416 -75.36349374 255.04875307 -81.2109375 254.87890625 C-82.90626644 254.86210779 -84.60163924 254.84930245 -86.29702759 254.84031677 C-90.74682492 254.80604756 -95.19395333 254.71773178 -99.6427002 254.61798096 C-104.18721408 254.52570193 -108.73216186 254.48476428 -113.27734375 254.43945312 C-122.1860648 254.34309901 -131.09280999 254.18961735 -140 254 C-140.29960632 254.76813522 -140.59921265 255.53627045 -140.90789795 256.3276825 C-142.12355638 259.30233611 -143.60310664 261.98259922 -145.203125 264.76953125 C-145.84652832 265.89327148 -146.48993164 267.01701172 -147.15283203 268.17480469 C-147.85174979 269.38744947 -148.55080934 270.60001254 -149.25 271.8125 C-149.97397607 273.07313855 -150.69776921 274.33388216 -151.42138672 275.59472656 C-157.65838592 286.45080417 -163.96082583 297.2687045 -170.28662109 308.07324219 C-181.94964774 327.99577902 -193.54640969 347.95621695 -205 368 C-190.48 368 -175.96 368 -161 368 C-160.34 366.02 -159.68 364.04 -159 362 C-158.23653932 360.51341425 -157.422196 359.05182802 -156.55859375 357.62109375 C-156.06625244 356.79754395 -155.57391113 355.97399414 -155.06665039 355.12548828 C-154.26022095 353.79493408 -154.26022095 353.79493408 -153.4375 352.4375 C-152.25713138 350.46525123 -151.07748088 348.49257255 -149.8984375 346.51953125 C-148.95242676 344.94099365 -148.95242676 344.94099365 -147.98730469 343.33056641 C-144.84279579 338.06061673 -141.74183415 332.76534906 -138.64196777 327.46905518 C-137.56188014 325.6239411 -136.480765 323.77943253 -135.39941406 321.93505859 C-131.90424901 315.97187017 -128.4178787 310.00372357 -124.9453125 304.02734375 C-124.31036865 302.93534668 -123.6754248 301.84334961 -123.02124023 300.71826172 C-121.83413231 298.6753171 -120.64864135 296.63143169 -119.46508789 294.58642578 C-118.66832642 293.21526611 -118.66832642 293.21526611 -117.85546875 291.81640625 C-117.39809326 291.02693604 -116.94071777 290.23746582 -116.46948242 289.42407227 C-115.98455322 288.62412842 -115.49962402 287.82418457 -115 287 C-114.52084641 285.97103607 -114.04169281 284.94207214 -113.54801941 283.88192749 C-111 281 -111 281 -108.93537045 280.48287487 C-106.19196857 280.32516827 -103.50851996 280.36509227 -100.76220703 280.46508789 C-99.72097183 280.47855255 -98.67973663 280.49201721 -97.60694885 280.50588989 C-95.34396726 280.53766589 -93.08114074 280.58254581 -90.81863785 280.63890266 C-87.22672195 280.72338753 -83.63694661 280.76292792 -80.04415894 280.78892517 C-69.83011787 280.86783037 -59.6181233 281.00260892 -49.40625 281.22924805 C-43.15715435 281.36473949 -36.91085702 281.42591528 -30.66036606 281.44170952 C-28.28793779 281.46216016 -25.91556873 281.51035049 -23.54431534 281.5877552 C-9.68458458 282.39764616 -9.68458458 282.39764616 2.45367432 276.78927612 C5.52791205 273.74027507 8.12276278 270.445121 10.60774612 266.90653801 C12.82343469 263.87239708 15.40685061 261.21018268 18 258.5 C18.97454479 257.44705729 19.94742276 256.39256722 20.91796875 255.3359375 C24.37489927 251.59158693 27.84072389 247.85558796 31.3125 244.125 C31.87517578 243.51849609 32.43785156 242.91199219 33.01757812 242.28710938 C35.86099311 239.23604807 38.74337749 236.23943514 41.703125 233.30078125 C44.05435359 230.96554297 46.30099201 228.59856273 48.4375 226.0625 C51.40605556 222.61578784 54.54079104 219.40889141 57.8125 216.25 C59.71150203 214.29674077 61.49991854 212.30216399 63.28515625 210.24609375 C66.90058179 206.0846534 70.64599118 202.06330049 74.4375 198.0625 C75.84636515 196.57032287 77.25521898 195.07813505 78.6640625 193.5859375 C79.37981445 192.82893555 80.09556641 192.07193359 80.83300781 191.29199219 C90.6305177 180.92932625 100.40475227 170.55070672 110 160 C108.50153206 156.37598787 106.44211507 154.3682297 103.5 151.8125 C102.613125 151.03519531 101.72625 150.25789062 100.8125 149.45703125 C99.884375 148.64621094 98.95625 147.83539062 98 147 C95.33994542 144.58747828 92.68542022 142.16899058 90.03125 139.75 C88.11733569 137.9565896 88.11733569 137.9565896 86 137 C86 136.01 86 135.02 86 134 C128.17461606 121.84054225 128.17461606 121.84054225 144.01538086 117.81274414 C149.75719891 116.34803425 155.40446484 114.68060134 161.05078125 112.87890625 C166.3024703 111.31383335 171.64952501 110.17096256 177 109 C175.60671651 117.6346133 174.0437686 126.22711729 172.375 134.8125 C172.18724503 135.78021835 172.18724503 135.78021835 171.99569702 136.76748657 C169.83369077 147.89641671 167.60318152 159.01142211 165.33648682 170.11947632 C164.99126303 171.81139457 164.64680242 173.50346875 164.30316162 175.19570923 C162.40707477 184.52086151 160.42638781 193.7946998 158 203 C153.99604957 199.67757305 150.21690255 196.26765814 146.5625 192.5625 C143.05161411 189.00351978 139.42875212 185.65729727 135.62890625 182.41015625 C134.37392427 181.32370902 133.17374345 180.17374345 132 179 C129.00711395 178.655264 129.00711395 178.655264 127.45703125 180.46875 C126.91433594 181.1390625 126.37164063 181.809375 125.8125 182.5 C123.321454 185.47876659 120.77551343 188.28376938 118 191 C115.4207494 193.53972186 112.97782611 196.12451314 110.625 198.875 C107.09523461 202.9850008 103.26630758 206.74899523 99.4140625 210.5546875 C96.71248706 213.29123479 94.20921265 216.14979366 91.7109375 219.0703125 C89.25426881 221.84107582 86.60640023 224.402929 83.96875 227 C82.06013545 228.93891002 80.27289448 230.93699551 78.5 233 C75.48237647 236.51141648 72.26640919 239.75307402 68.96875 243 C67.06013545 244.93891002 65.27289448 246.93699551 63.5 249 C61.10323412 251.78896393 58.62040609 254.41990785 56 257 C53.40017817 259.55990134 50.93731602 262.1677954 48.5625 264.9375 C45.28989507 268.74684196 41.76899563 272.24821109 38.1953125 275.7734375 C35.55993257 278.44633174 33.12233511 281.25368303 30.6796875 284.1015625 C28.47956435 286.58821332 26.12175622 288.88937141 23.75390625 291.21484375 C21.33573806 293.67609734 19.10166497 296.27908347 16.87109375 298.91015625 C16.25363281 299.59980469 15.63617187 300.28945313 15 301 C14.18425507 302.01905426 13.36851013 303.03810852 12.52804565 304.08804321 C9.10268294 307.47038345 6.28385386 307.70310616 1.59004211 307.746521 C0.62978622 307.72494934 -0.33046967 307.70337769 -1.31982422 307.68115234 C-2.85732582 307.68246658 -2.85732582 307.68246658 -4.42588806 307.68380737 C-7.80293849 307.679638 -11.17798547 307.63301362 -14.5546875 307.5859375 C-16.900227 307.57474313 -19.24578055 307.56620408 -21.59133911 307.56021118 C-27.75662149 307.53733231 -33.92105207 307.4784154 -40.08599854 307.4119873 C-46.38013181 307.35054552 -52.67440309 307.323192 -58.96875 307.29296875 C-71.31287369 307.22867272 -83.65636593 307.12630322 -96 307 C-96.29993362 307.76878983 -96.59986725 308.53757965 -96.90888977 309.32966614 C-98.11457565 312.28040727 -99.57887551 314.93594326 -101.16796875 317.69921875 C-101.80637695 318.81288818 -102.44478516 319.92655762 -103.10253906 321.07397461 C-103.79745246 322.27852553 -104.49244138 323.48303288 -105.1875 324.6875 C-105.90749425 325.94068283 -106.62721674 327.19402183 -107.34667969 328.44750977 C-109.55993035 332.30095205 -111.77950658 336.15072809 -114 340 C-114.67597531 341.172508 -115.3519203 342.34503348 -116.02783203 343.51757812 C-118.55349419 347.89801352 -121.08012528 352.27788495 -123.609375 356.65625 C-128.99689403 365.98389489 -134.34757035 375.33230745 -139.68237305 384.69018555 C-141.45318779 387.79444316 -143.22688799 390.89705398 -145 394 C-179.98 394 -214.96 394 -251 394 C-249.76540872 390.9135218 -248.68785459 388.26074518 -247.109375 385.41796875 C-246.7373999 384.74660889 -246.3654248 384.07524902 -245.98217773 383.38354492 C-245.57555908 382.6588501 -245.16894043 381.93415527 -244.75 381.1875 C-244.31308838 380.40544189 -243.87617676 379.62338379 -243.42602539 378.81762695 C-237.42556897 368.13012768 -231.20576613 357.56904991 -225 347 C-224.31802156 345.83838612 -223.63605564 344.6767649 -222.95410156 343.51513672 C-222.43642715 342.63334244 -222.43642715 342.63334244 -221.90829468 341.73373413 C-220.12604473 338.69767622 -218.34419533 335.66138341 -216.5625 332.625 C-216.20496643 332.0158374 -215.84743286 331.4066748 -215.47906494 330.77905273 C-209.75893497 321.03090263 -204.09167036 311.2532812 -198.45336914 301.45751953 C-194.32675039 294.29055132 -190.17314335 287.13996913 -186 280 C-177.95527573 266.2321909 -169.99701286 252.41484221 -162.04003906 238.59619141 C-154.90339768 226.20348617 -147.74789735 213.82437924 -140.47900391 201.50878906 C-137.24964137 196.03092022 -134.0303476 190.54713832 -130.8125 185.0625 C-130.44675873 184.43920807 -130.08101746 183.81591614 -129.70419312 183.17373657 C-124.57543281 174.43019075 -119.48938778 165.66325673 -114.4375 156.875 C-108.702951 146.90051679 -102.86271977 136.99280565 -96.98022461 127.10498047 C-91.80071009 118.3854919 -86.71996923 109.61246274 -81.6730957 100.81567383 C-78.34844621 95.03269711 -74.98882461 89.27314498 -71.57421875 83.54296875 C-71.02261581 82.6166716 -71.02261581 82.6166716 -70.45986938 81.67166138 C-68.67915766 78.68343727 -66.89370906 75.69817649 -65.1015625 72.71679688 C-64.14443359 71.11481445 -64.14443359 71.11481445 -63.16796875 69.48046875 C-62.32141724 68.07124146 -62.32141724 68.07124146 -61.45776367 66.63354492 C-60.06018569 64.10872937 -58.86265059 61.75514769 -58 59 C-59.02459651 55.89884239 -59.02459651 55.89884239 -60.8125 52.875 C-66.1434206 43.09147982 -66.64642486 32.34064548 -64.19921875 21.4296875 C-59.7210823 9.64187815 -50.59850042 1.15010578 -39.41015625 -4.25 C-25.92551286 -9.82184691 -12.23439825 -7.31625145 0 0 Z " fill="#0471BA" transform="translate(669,574)"/>
<path d="M0 0 C1.26980713 0.00572021 2.53961426 0.01144043 3.84790039 0.01733398 C13.94703499 0.20863719 22.46820909 1.57308846 31.75 5.5 C32.37390625 5.76232422 32.9978125 6.02464844 33.640625 6.29492188 C41.92961182 9.86569409 49.05624708 14.44266501 55.75 20.5 C56.51957031 21.17675781 57.28914063 21.85351562 58.08203125 22.55078125 C71.04354718 34.6290593 80.49707465 53.67910266 81.1484375 71.55078125 C81.16144862 73.6379949 81.15314923 75.72543562 81.125 77.8125 C81.11412354 78.91263428 81.10324707 80.01276855 81.09204102 81.14624023 C80.64275679 104.11059788 71.83201834 123.05748176 55.58618164 139.21826172 C38.90645556 154.95112631 15.73838624 160.2439635 -6.5390625 159.74609375 C-28.22463161 158.86338832 -47.70134375 149.46046732 -62.48828125 133.70703125 C-77.89626496 116.40284329 -83.46586843 93.1511786 -82.25 70.5 C-79.51528108 49.4102185 -69.43850847 31.29797743 -53.25 17.5 C-37.37379508 5.40162292 -19.90792494 -0.10495336 0 0 Z " fill="#0371BB" transform="translate(2318.25,688.5)"/>
<path d="M0 0 C0.99757324 -0.00563965 1.99514648 -0.0112793 3.02294922 -0.01708984 C25.5082718 0.20193509 44.80526297 8.93282735 60.9921875 24.39453125 C76.71783046 40.88504012 82.40680081 62.21146722 82.0546875 84.3828125 C81.36025504 106.28149933 71.36149414 124.66811824 55.796875 139.73828125 C39.28378555 153.9819016 16.70095176 160.61671391 -4.95703125 159.69921875 C-28.22613144 157.97134225 -47.51342762 147.87011166 -63.375 131 C-77.61147737 114.3525063 -82.80243083 91.86090042 -81.1875 70.3125 C-78.34556833 48.26961826 -67.54646165 29.710851 -50.15625 15.90625 C-34.69332815 4.64684088 -18.8648101 0.10115955 0 0 Z " fill="#0371BB" transform="translate(1413.1875,688.6875)"/>
<path d="M0 0 C12.705 -0.061875 25.41 -0.12375 38.5 -0.1875 C42.47869141 -0.21481201 46.45738281 -0.24212402 50.55664062 -0.27026367 C55.49902344 -0.28381348 55.49902344 -0.28381348 57.82897949 -0.28633118 C59.42080214 -0.29087119 61.01261595 -0.30127941 62.60437012 -0.31672668 C82.50944959 -0.49986383 101.94440162 1.59079582 117 16 C127.65807305 27.22025712 129.48194187 40.9107059 129.27734375 55.63671875 C128.78202146 69.72013621 122.46251686 80.24635732 112.5234375 89.9140625 C108.39854871 93.32380029 103.81415506 95.70540273 99 98 C99.61288124 101.09697892 100.61019416 103.19302184 102.4140625 105.7734375 C102.92050293 106.50498047 103.42694336 107.23652344 103.94873047 107.99023438 C104.50189941 108.77720703 105.05506836 109.56417969 105.625 110.375 C106.8076071 112.08051049 107.98988521 113.78624913 109.171875 115.4921875 C109.79513672 116.38776367 110.41839844 117.28333984 111.06054688 118.20605469 C114.35642149 122.95403922 117.61596003 127.72669177 120.875 132.5 C121.78306396 133.82330322 121.78306396 133.82330322 122.70947266 135.17333984 C126.94212044 141.36522476 131.00797579 147.65050515 135 154 C129.30784332 154.27322046 123.61954402 154.47207961 117.92236328 154.60424805 C115.98776754 154.65936059 114.05362583 154.73428109 112.12060547 154.82983398 C96.18379759 155.59752669 96.18379759 155.59752669 91.18359375 151.93969727 C89.06534272 149.06881423 87.54770689 146.21173669 86 143 C84.68909971 140.94515065 83.3552204 138.90479941 82 136.87890625 C80.6631279 134.77568267 79.32980952 132.67019615 78 130.5625 C76.66784355 128.45888967 75.33451188 126.35602311 74 124.25390625 C73.02546875 122.71694092 73.02546875 122.71694092 72.03125 121.14892578 C69.25205493 116.84050535 66.36898289 112.60665787 63.46875 108.37866211 C62 106 62 106 62 104 C52.76 104 43.52 104 34 104 C34 120.5 34 137 34 154 C22.78 154 11.56 154 0 154 C0 103.18 0 52.36 0 0 Z " fill="#0371BC" transform="translate(2084,691)"/>
<path d="M0 0 C34 0 34 0 42.0625 7.75 C44.765625 12.5 44.765625 12.5 45.91601562 14.85546875 C47.38715871 17.76594642 49.28467707 20.20412011 51.3125 22.75 C52.00988281 23.68328125 52.70726562 24.6165625 53.42578125 25.578125 C56.92228955 30.24013607 60.46524891 34.86697151 64 39.5 C68.94087668 45.97604932 73.86188283 52.46453578 78.734375 58.9921875 C80.50348429 61.34083259 82.28498103 63.67759685 84.078125 66.0078125 C84.63282471 66.72936523 85.18752441 67.45091797 85.7590332 68.19433594 C86.82314921 69.57683545 87.88916437 70.95787696 88.95776367 72.33691406 C94.16541805 79.10413737 99.02386659 86.03341322 104 93 C104.33 62.31 104.66 31.62 105 0 C116.22 0 127.44 0 139 0 C139 50.82 139 101.64 139 154 C108 154 108 154 101.0625 147.3125 C99.55883789 144.99145508 99.55883789 144.99145508 98.59765625 142.89453125 C95.72985683 137.22696626 91.92166168 132.47194474 88 127.5 C86.62543048 125.70578249 85.25428623 123.90893523 83.88671875 122.109375 C83.22720215 121.24376953 82.56768555 120.37816406 81.88818359 119.48632812 C79.17973439 115.91988816 76.49378891 112.33688088 73.8125 108.75 C68.15483516 101.1838633 62.42049852 93.67782724 56.671875 86.18066406 C53.79986639 82.43463882 50.93100721 78.68620668 48.0625 74.9375 C47.28338257 73.92055054 47.28338257 73.92055054 46.48852539 72.88305664 C42.96292963 68.27633118 39.48099798 63.64133064 36 59 C35.67 90.35 35.34 121.7 35 154 C23.45 154 11.9 154 0 154 C0 103.18 0 52.36 0 0 Z " fill="#0171BC" transform="translate(990,691)"/>
<path d="M0 0 C33 0 33 0 39.8125 6 C40.90170293 7.96410421 41.9905318 9.93175464 42.95410156 11.96044922 C44.75907311 15.48022801 47.25462106 18.46008647 49.6875 21.5625 C50.69073372 22.89992416 51.69063004 24.23985706 52.6875 25.58203125 C56.48730798 30.66357593 60.33759791 35.70636448 64.1875 40.75 C68.99383778 47.04801764 73.78217637 53.35695982 78.51953125 59.70703125 C80.62210451 62.51137603 82.75361953 65.29303812 84.88671875 68.07421875 C85.593125 68.99654297 86.29953125 69.91886719 87.02734375 70.86914062 C88.42992083 72.69908522 89.83474095 74.52731359 91.2421875 76.35351562 C91.89832031 77.21009766 92.55445313 78.06667969 93.23046875 78.94921875 C93.81207764 79.70549561 94.39368652 80.46177246 94.99291992 81.2409668 C97.78255697 85.07574217 100.36955242 89.05432863 103 93 C103.33 62.31 103.66 31.62 104 0 C115.22 0 126.44 0 138 0 C138 50.82 138 101.64 138 154 C128.1 154 118.2 154 108 154 C101.2596291 146.13623395 101.2596291 146.13623395 98.625 142.57421875 C98.03984619 141.78732666 97.45469238 141.00043457 96.85180664 140.18969727 C96.24071045 139.36397217 95.62961426 138.53824707 95 137.6875 C90.08732938 131.09221696 85.12884528 124.5405272 80.0625 118.0625 C69.10635429 104.04393233 58.35018995 89.87074863 47.70703125 75.61328125 C45.90674528 73.20321058 44.09131574 70.80585946 42.26171875 68.41796875 C41.83624756 67.85988525 41.41077637 67.30180176 40.97241211 66.72680664 C39.83373261 65.23472033 38.69048285 63.74612485 37.546875 62.2578125 C36 60 36 60 36 58 C35.34 58 34.68 58 34 58 C34 89.68 34 121.36 34 154 C22.78 154 11.56 154 0 154 C0 103.18 0 52.36 0 0 Z " fill="#0171BC" transform="translate(1165,691)"/>
<path d="M0 0 C1.12883315 0.87004926 2.25540999 1.74308832 3.375 2.625 C1.87385427 7.72504638 -1.26815601 10.78018998 -4.875 14.5 C-6.00656966 15.68359585 -7.13678248 16.86849039 -8.265625 18.0546875 C-8.81927734 18.63573242 -9.37292969 19.21677734 -9.94335938 19.81542969 C-12.59903783 22.67313711 -15.10904965 25.64398004 -17.625 28.625 C-21.06963128 27.36256969 -23.84659636 25.89791521 -26.8125 23.75 C-38.71540759 15.64336859 -52.37999042 12.85962251 -66.5859375 15.08984375 C-78.36048259 17.94070066 -87.55336956 23.73610029 -94.625 33.625 C-101.80386462 46.24505785 -103.56995543 60.13771192 -100.9375 74.33203125 C-97.65201727 85.87228934 -91.8360869 96.4698818 -81.2421875 102.57421875 C-67.95135921 109.54946044 -52.89389885 111.20358755 -38.3125 106.875 C-35.42193632 105.92929437 -35.42193632 105.92929437 -32.625 104.625 C-32.00633057 104.40875977 -31.38766113 104.19251953 -30.75024414 103.96972656 C-28.61333218 103.06534569 -27.23411611 102.30739601 -25.625 100.625 C-24.60831184 97.03848818 -24.64719155 93.58337696 -24.6875 89.875 C-24.666875 86.4925 -24.64625 83.11 -24.625 79.625 C-36.175 79.625 -47.725 79.625 -59.625 79.625 C-59.625 70.055 -59.625 60.485 -59.625 50.625 C-36.855 50.625 -14.085 50.625 9.375 50.625 C9.601875 61.329375 9.82875 72.03375 10.0625 83.0625 C10.16264404 86.42622803 10.26278809 89.78995605 10.3659668 93.25561523 C10.39811146 95.93989238 10.42613768 98.62422337 10.44921875 101.30859375 C10.47796585 101.994944 10.50671295 102.68129425 10.53633118 103.38844299 C10.98537915 114.68725229 10.98537915 114.68725229 7.00166321 119.48080444 C4.22372611 121.78941181 1.4587543 123.75009376 -1.625 125.625 C-2.39995819 126.12038269 -3.17491638 126.61576538 -3.97335815 127.12615967 C-5.87967483 128.31193173 -7.81177408 129.35745289 -9.8125 130.375 C-10.53099121 130.74568604 -11.24948242 131.11637207 -11.98974609 131.49829102 C-36.34844751 143.66166182 -63.9729963 144.76639774 -89.6875 136.5 C-108.99468841 129.22704328 -123.48186761 115.21912146 -132.30859375 96.67578125 C-140.63964807 77.36850106 -142.00115735 53.50945799 -134.625 33.625 C-126.62748218 13.90657614 -112.30198195 -2.63521111 -92.625 -11.375 C-62.07389485 -23.21828556 -26.38224678 -19.63652343 0 0 Z " fill="#0371BC" transform="translate(2042.625,706.375)"/>
<path d="M0 0 C1.39120471 0.00015906 2.78241534 0.00585033 4.17358398 0.01586914 C5.27016579 0.01799156 5.27016579 0.01799156 6.38890076 0.02015686 C8.73253406 0.02577131 11.07607313 0.03832617 13.41967773 0.05102539 C15.00496282 0.05603853 16.59024939 0.06060176 18.17553711 0.06469727 C22.06945383 0.07574542 25.96329979 0.09301967 29.85717773 0.11352539 C35.88088916 11.68732445 41.07304201 23.57276772 46.23217773 35.55102539 C47.11691565 37.59686769 48.00209538 39.64251898 48.88769531 41.68798828 C50.6854727 45.84091815 52.48161819 49.99454765 54.27661133 54.14868164 C57.6709098 61.99970174 61.08875849 69.84040483 64.50991821 77.67974854 C65.54304501 80.0472838 66.57557983 82.41507633 67.60791016 84.78295898 C70.84177401 92.20050826 74.07695641 99.61748198 77.31266785 107.03422546 C78.85310599 110.56536511 80.39320511 114.09665255 81.93325806 117.62796021 C83.00545695 120.08610696 84.07815658 122.54403476 85.15087891 125.00195312 C86.45075405 127.98082468 87.74772729 130.96093159 89.04223633 133.94213867 C90.24424367 136.71030295 91.45646938 139.47365661 92.67602539 142.23413086 C93.23263551 143.50506904 93.78912033 144.77606211 94.34545898 146.04711914 C94.83183838 147.14983154 95.31821777 148.25254395 95.81933594 149.38867188 C96.85717773 152.11352539 96.85717773 152.11352539 96.85717773 155.11352539 C84.64717773 155.11352539 72.43717773 155.11352539 59.85717773 155.11352539 C55.23717773 144.22352539 50.61717773 133.33352539 45.85717773 122.11352539 C24.07717773 122.11352539 2.29717773 122.11352539 -20.14282227 122.11352539 C-24.37887923 132.59860959 -24.37887923 132.59860959 -28.609375 143.0859375 C-29.13985308 144.39599663 -29.67052033 145.70597919 -30.20141602 147.01586914 C-30.47699341 147.70169067 -30.7525708 148.38751221 -31.03649902 149.09411621 C-33.02875047 153.99945359 -33.02875047 153.99945359 -34.14282227 155.11352539 C-36.80908257 155.202077 -39.44929341 155.22877212 -42.11547852 155.21118164 C-42.91312119 155.20976669 -43.71076385 155.20835175 -44.53257751 155.20689392 C-47.09019662 155.20127856 -49.64772944 155.18872351 -52.20532227 155.17602539 C-53.93513871 155.17101237 -55.66495653 155.16644912 -57.39477539 155.16235352 C-61.6441578 155.15130414 -65.89347538 155.13402925 -70.14282227 155.11352539 C-68.85072584 151.09627592 -67.3993274 147.22103483 -65.72680664 143.34741211 C-65.25118286 142.24213165 -64.77555908 141.1368512 -64.28552246 139.99807739 C-63.7743689 138.81672211 -63.26321533 137.63536682 -62.73657227 136.41821289 C-62.1968765 135.16587636 -61.65745253 133.91342268 -61.11828613 132.66085815 C-60.00579923 130.07677262 -58.89227272 127.49313883 -57.77807617 124.90979004 C-55.31427392 119.19397723 -52.87004813 113.46979565 -50.42407227 107.74633789 C-40.71623977 85.054196 -30.98535112 62.3726501 -21.14282227 39.73852539 C-20.7400708 38.81187073 -20.33731934 37.88521606 -19.92236328 36.93048096 C-17.33834136 30.98747034 -14.74594806 25.04819346 -12.14282227 19.11352539 C-11.76432129 18.25029663 -11.38582031 17.38706787 -10.99584961 16.49768066 C-9.88116284 13.95944501 -8.76273698 11.42289559 -7.64282227 8.88696289 C-7.30420166 8.11599274 -6.96558105 7.34502258 -6.61669922 6.5506897 C-3.77417609 0.13633123 -3.77417609 0.13633123 0 0 Z " fill="#0371BC" transform="translate(1799.142822265625,689.886474609375)"/>
<path d="M0 0 C12.54 0 25.08 0 38 0 C41.23827705 7.77186492 44.38991336 15.5160587 47.3359375 23.39453125 C47.73263138 24.44961884 48.12932526 25.50470642 48.53804016 26.59176636 C49.38300433 28.83929308 50.22710766 31.08714361 51.07040405 33.33529663 C53.2852062 39.2385171 55.5075706 45.13888671 57.73046875 51.0390625 C58.39726402 52.80913918 58.39726402 52.80913918 59.07752991 54.61497498 C63.24000087 65.65489479 67.45011075 76.67614413 71.6875 87.6875 C72.00700623 88.5189151 72.32651245 89.3503302 72.65570068 90.2069397 C73.54390712 92.51736927 74.43366667 94.82719243 75.32421875 97.13671875 C75.58366776 97.81121063 75.84311676 98.48570251 76.11042786 99.18063354 C77.00560785 101.49618613 77.88903643 103.77807286 79 106 C79.36424072 105.01684814 79.72848145 104.03369629 80.10375977 103.02075195 C88.88623732 79.32586318 97.74338782 55.6594537 106.65540695 32.01302719 C107.43913184 29.93316942 108.22243877 27.85315466 109.00564575 25.77310181 C110.2475155 22.47521413 111.4905606 19.1777719 112.73456192 15.88068771 C113.41995781 14.06349673 114.10438272 12.24593961 114.78878784 10.42837524 C115.19807526 9.34462616 115.60736267 8.26087708 116.02905273 7.14428711 C116.38716537 6.19476669 116.74527802 5.24524628 117.11424255 4.26695251 C118 2 118 2 119 0 C131.54 0 144.08 0 157 0 C155.25989638 5.22031086 153.57691088 10.24427755 151.5300293 15.31518555 C151.05990417 16.48356461 150.58977905 17.65194366 150.10540771 18.85572815 C149.59508123 20.11608663 149.08468269 21.37641594 148.57421875 22.63671875 C148.03292799 23.97870903 147.49185695 25.32078796 146.95098877 26.66294861 C145.50067786 30.25974434 144.04688726 33.85512388 142.59232712 37.45020294 C141.37847383 40.45160547 140.16669644 43.4538443 138.95488071 46.45606995 C130.12798993 68.32281289 121.25491258 90.17072408 112.33276367 111.9987793 C106.4871577 126.30582187 100.72671942 140.6448871 95 155 C84.11 155 73.22 155 62 155 C55.8223785 140.53136018 49.77477069 126.04305656 43.96679688 111.42285156 C39.47281159 100.12462185 34.86642747 88.87366728 30.25 77.625 C23.48273156 61.13206893 16.80535141 44.60547414 10.21386719 28.04150391 C9.90226654 27.25909332 9.59066589 26.47668274 9.2696228 25.67056274 C8.67055758 24.16623008 8.07208608 22.6616608 7.47427368 21.15682983 C5.35074701 15.82804017 3.13186632 10.54452297 0.84106445 5.28515625 C0 3 0 3 0 0 Z " fill="#0371BB" transform="translate(1502,691)"/>
<path d="M0 0 C3.62009477 1.20669826 3.80788302 1.92691077 5.57421875 5.1796875 C6.06833252 6.07453857 6.56244629 6.96938965 7.0715332 7.89135742 C7.60480225 8.87595947 8.13807129 9.86056152 8.6875 10.875 C9.85936395 12.99493733 11.03395637 15.11336817 12.2109375 17.23046875 C12.82936523 18.34341309 13.44779297 19.45635742 14.08496094 20.60302734 C17.2331314 26.18737765 20.52368139 31.68520058 23.8125 37.1875 C29.34517084 46.46813064 34.7819529 55.79641031 40.125 65.1875 C46.76663834 76.8590295 53.49701922 88.47579895 60.28222656 100.06445312 C63.19360719 105.03978579 66.09621442 110.02023228 69 115 C69.57113525 115.9787207 70.14227051 116.95744141 70.73071289 117.96582031 C73.76320987 123.16243488 76.79221595 128.36104639 79.81640625 133.5625 C80.75709961 135.17898438 80.75709961 135.17898438 81.71679688 136.828125 C82.91054516 138.87960354 84.10331984 140.93164906 85.29492188 142.984375 C88.14139974 147.87369877 91.03304361 152.70754189 94.13256836 157.44140625 C95 159 95 159 95 161 C60.02 161 25.04 161 -11 161 C-15.95 152.42 -20.9 143.84 -26 135 C-30.07896664 127.99717232 -34.15942118 120.99541218 -38.24853516 113.99853516 C-40.04636405 110.92062401 -41.84188908 107.84137971 -43.63671875 104.76171875 C-44.23669678 103.73288574 -44.8366748 102.70405273 -45.45483398 101.64404297 C-46.63729379 99.61425816 -47.81784424 97.58335966 -48.99633789 95.55126953 C-51.66864269 90.95128156 -54.36737015 86.3762813 -57.171875 81.85546875 C-57.89262207 80.6797229 -57.89262207 80.6797229 -58.62792969 79.48022461 C-59.51615292 78.03646674 -60.41710523 76.60043118 -61.33300781 75.17407227 C-62.5 73.265625 -62.5 73.265625 -64 70 C-62.25522821 65.07556688 -58.0783076 61.53336882 -54.5625 57.8125 C-53.88123047 57.07580078 -53.19996094 56.33910156 -52.49804688 55.58007812 C-51.83998047 54.87947266 -51.18191406 54.17886719 -50.50390625 53.45703125 C-49.60393921 52.4976062 -49.60393921 52.4976062 -48.68579102 51.51879883 C-47 50 -47 50 -44 49 C-43.62939453 49.64622314 -43.25878906 50.29244629 -42.87695312 50.95825195 C-35.68880502 63.48142247 -28.45139208 75.96887982 -21.0625 88.375 C-15.70552355 97.38157377 -10.40740344 106.41876308 -5.1947937 115.50958252 C-4.48861687 116.74095507 -3.78138292 117.97172205 -3.07302856 119.20184326 C-2.08947267 120.91120813 -1.11103676 122.6235159 -0.1328125 124.3359375 C0.42519043 125.31095215 0.98319336 126.2859668 1.55810547 127.29052734 C3 130 3 130 5 135 C19.52 135 34.04 135 49 135 C46.999375 131.57625 44.99875 128.1525 42.9375 124.625 C34.58384297 110.31346663 26.30905812 95.95676237 18.04003906 81.59619141 C9.00702854 65.89433797 9.00702854 65.89433797 -0.125 50.25 C-0.50358154 49.60659668 -0.88216309 48.96319336 -1.2722168 48.30029297 C-3.66682188 44.23954845 -6.08058752 40.19054336 -8.5 36.14453125 C-9.40081299 34.63294434 -9.40081299 34.63294434 -10.31982422 33.09082031 C-11.5052048 31.10225381 -12.69422084 29.115849 -13.88720703 27.13183594 C-14.42200684 26.23368164 -14.95680664 25.33552734 -15.5078125 24.41015625 C-15.98879395 23.60715088 -16.46977539 22.80414551 -16.96533203 21.97680664 C-18 20 -18 20 -18 18 C-16.6015625 16.66015625 -16.6015625 16.66015625 -14.625 15.0625 C-9.22946489 10.49853481 -4.66847669 5.29030248 0 0 Z " fill="#0470B9" transform="translate(778,807)"/>
<path d="M0 0 C9.9090371 6.70824562 17.53972933 16.53483076 20.62402344 28.26318359 C23.28534337 42.4207485 21.84276688 57.11314771 14.01953125 69.3046875 C13.03160262 70.66768581 12.03311005 72.02315425 11.01953125 73.3671875 C10.42140625 74.2540625 9.82328125 75.1409375 9.20703125 76.0546875 C3.04170289 82.57232034 -4.57599463 85.68051135 -12.98046875 88.3671875 C-13.97046875 88.6971875 -14.96046875 89.0271875 -15.98046875 89.3671875 C-30.3977856 90.32415848 -41.75612346 88.6982172 -53.50390625 79.57421875 C-62.75282617 71.33188475 -69.06632909 59.81689903 -69.98046875 47.3671875 C-70.7676841 32.14769081 -67.72063392 19.82410657 -58.29296875 7.6171875 C-43.30877544 -8.61244525 -18.61692708 -11.33787631 0 0 Z " fill="#F9FBFB" transform="translate(2341.98046875,726.6328125)"/>
<path d="M0 0 C10.85262298 8.30216863 18.21609354 19.23391372 20.6875 32.8125 C22.28489248 47.05812569 19.90828607 60.10472296 11.2578125 71.86328125 C10.73960938 72.50652344 10.22140625 73.14976562 9.6875 73.8125 C9.21054688 74.42480469 8.73359375 75.03710938 8.2421875 75.66796875 C0.58755774 84.3803991 -10.63136497 88.30098337 -21.890625 89.05078125 C-30.24530479 89.21965244 -36.783036 88.49075271 -44.3125 84.8125 C-45.16457031 84.41160156 -46.01664063 84.01070312 -46.89453125 83.59765625 C-56.30548234 78.61028586 -63.57469738 69.77997365 -67.3125 59.8125 C-67.60898438 59.02875 -67.90546875 58.245 -68.2109375 57.4375 C-72.24861259 44.99108873 -71.63993948 30.7528732 -66.1875 18.875 C-59.29326765 5.91303683 -49.44333071 -2.29941323 -35.484375 -6.7734375 C-23.16386084 -9.1223125 -10.48157764 -6.87054632 0 0 Z " fill="#FBFDFE" transform="translate(1438.3125,727.1875)"/>
<path d="M0 0 C11.22 0 22.44 0 34 0 C34 50.49 34 100.98 34 153 C22.78 153 11.56 153 0 153 C0 102.51 0 52.02 0 0 Z " fill="#0270BA" transform="translate(919,692)"/>
<path d="M0 0 C10.085625 -0.1546875 10.085625 -0.1546875 20.375 -0.3125 C23.52748291 -0.38078003 23.52748291 -0.38078003 26.74365234 -0.45043945 C45.9301732 -0.69355994 45.9301732 -0.69355994 53.61474609 6.51464844 C58.56957215 12.05105965 59.51668663 16.62918502 59.375 23.890625 C58.69867803 29.49846137 56.39592854 33.678055 52.35546875 37.59375 C45.71569613 42.74969081 38.68859912 43.29569871 30.56640625 43.1953125 C29.78712769 43.19329834 29.00784912 43.19128418 28.20495605 43.18920898 C25.32407656 43.17883047 22.44328169 43.15090858 19.5625 43.125 C13.106875 43.08375 6.65125 43.0425 0 43 C0 28.81 0 14.62 0 0 Z " fill="#FCFCFC" transform="translate(2119,722)"/>
<path d="M0 0 C0.66 0 1.32 0 2 0 C4.37309542 5.5105443 6.7389408 11.02412575 9.09838867 16.54052734 C9.90048406 18.41310476 10.70448569 20.28486694 11.51049805 22.15576172 C12.67490007 24.85948158 13.83220333 27.56614964 14.98828125 30.2734375 C15.34465164 31.09677582 15.70102203 31.92011414 16.06819153 32.7684021 C18.50140714 38.49202606 20.18941851 43.96472836 22 50 C8.14 50 -5.72 50 -20 50 C-18.77779768 46.33339304 -17.57894041 42.83319283 -16.12060547 39.27978516 C-15.760383 38.39932526 -15.40016052 37.51886536 -15.02902222 36.61172485 C-14.64561676 35.68024628 -14.2622113 34.7487677 -13.8671875 33.7890625 C-13.47048859 32.82092621 -13.07378967 31.85278992 -12.66506958 30.85531616 C-11.40354634 27.77778845 -10.13931292 24.70138255 -8.875 21.625 C-8.01674773 19.53262564 -7.15867283 17.44017852 -6.30078125 15.34765625 C-4.20257467 10.2309262 -2.10214465 5.11511331 0 0 Z " fill="#F3FAFC" transform="translate(1811,732)"/>
<path d="M0 0 C4.41854291 3.11306432 8.02390999 6.75922996 9.75 11.9375 C10.28849036 18.29168627 9.38972798 22.63692527 5.75 27.9375 C3.25 30.3125 3.25 30.3125 0.75 31.9375 C0.151875 32.35 -0.44625 32.7625 -1.0625 33.1875 C-5.95110847 34.86359433 -10.15392536 34.29047319 -14.9375 32.75 C-20.99983878 29.43287123 -24.2554263 25.586079 -26.25 18.9375 C-26.51344544 12.89933058 -25.17878595 8.63021655 -21.25 3.9375 C-14.99139801 -1.71050668 -7.97877623 -2.60844608 0 0 Z " fill="#F5FAFC" transform="translate(653.25,592.0625)"/>
<path d="M0 0 C11.22 0 22.44 0 34 0 C35.32 1.65 36.64 3.3 38 5 C37.67 5.66 37.34 6.32 37 7 C36.01 5.68 35.02 4.36 34 3 C23.44 2.67 12.88 2.34 2 2 C2.33 51.17 2.66 100.34 3 151 C12.9 151.33 22.8 151.66 33 152 C33 120.65 33 89.3 33 57 C33.99 57.33 34.98 57.66 36 58 C35.67 89.68 35.34 121.36 35 154 C23.45 154 11.9 154 0 154 C0 103.18 0 52.36 0 0 Z " fill="#297BB3" transform="translate(990,691)"/>
<path d="M0 0 C3.76115969 2.06495042 7.09650288 4.08725592 9 8 C9.6636341 11.8564515 9.90051649 15.39241131 7.9453125 18.8828125 C5.43457601 21.95809329 3.54778505 23.82553148 -0.42578125 24.2734375 C-8.25810844 24.54899976 -8.25810844 24.54899976 -12.125 21.6875 C-15.11002477 17.40896449 -15.87275174 13.12984079 -15 8 C-11.61926171 1.8200104 -6.92359299 -0.83083116 0 0 Z " fill="#F2FAFC" transform="translate(648,719)"/>
<path d="M0 0 C10.89 0 21.78 0 33 0 C33.66 1.32 34.32 2.64 35 4 C34.34 3.67 33.68 3.34 33 3 C22.77 2.67 12.54 2.34 2 2 C2 51.5 2 101 2 152 C12.23 152.33 22.46 152.66 33 153 C33 121.98 33 90.96 33 59 C33.33 59 33.66 59 34 59 C34 90.35 34 121.7 34 154 C22.78 154 11.56 154 0 154 C0 103.18 0 52.36 0 0 Z " fill="#166DA8" transform="translate(1165,691)"/>
<path d="M0 0 C11.22 0 22.44 0 34 0 C34 50.82 34 101.64 34 154 C24.1 154 14.2 154 4 154 C4 153.67 4 153.34 4 153 C13.57 153 23.14 153 33 153 C33 103.17 33 53.34 33 2 C22.77 2 12.54 2 2 2 C2 32.36 2 62.72 2 94 C1.01 94 0.02 94 -1 94 C-0.67 62.98 -0.34 31.96 0 0 Z " fill="#1A6DA6" transform="translate(1095,691)"/>
<path d="M0 0 C11.22 0 22.44 0 34 0 C34 50.82 34 101.64 34 154 C24.1 154 14.2 154 4 154 C4 153.67 4 153.34 4 153 C13.57 153 23.14 153 33 153 C32.96970703 150.77072754 32.93941406 148.54145508 32.90820312 146.24462891 C32.76617267 135.70482838 32.63129743 125.16493937 32.5 114.625 C32.48812275 113.67193089 32.4762455 112.71886177 32.46400833 111.73691177 C32.12540974 84.38657708 31.90457491 57.04002228 31.9375 29.6875 C31.93835602 28.97104561 31.93921204 28.25459122 31.94009399 27.51642609 C31.95104971 19.0109098 31.97388283 10.50549311 32 2 C21.77 2 11.54 2 1 2 C1 32.03 1 62.06 1 93 C0.67 93 0.34 93 0 93 C0 62.31 0 31.62 0 0 Z " fill="#186CA6" transform="translate(1269,691)"/>
<path d="M0 0 C22.77 0 45.54 0 69 0 C69 21.78 69 43.56 69 66 C68.01 66.495 68.01 66.495 67 67 C66.67 45.55 66.34 24.1 66 2 C44.88 2 23.76 2 2 2 C2 10.58 2 19.16 2 28 C12.89 28 23.78 28 35 28 C35 28.33 35 28.66 35 29 C23.45 29 11.9 29 0 29 C0 19.43 0 9.86 0 0 Z " fill="#297BB3" transform="translate(1983,757)"/>
<path d="M0 0 C0.99 0.33 1.98 0.66 3 1 C0.824908 3.91700013 -0.59264585 5.69729723 -4.21856117 6.47718239 C-7.04357425 6.65610069 -9.83458052 6.68358424 -12.6652832 6.65942383 C-14.27571754 6.67514938 -14.27571754 6.67514938 -15.91868591 6.69119263 C-19.46301086 6.71996545 -23.00636032 6.71364803 -26.55078125 6.70703125 C-29.00987473 6.72014483 -31.46895744 6.73544799 -33.92802429 6.75285339 C-40.39712184 6.7927554 -46.86593794 6.80289727 -53.33514404 6.80688477 C-59.93770921 6.81620627 -66.54010833 6.85361374 -73.14257812 6.88867188 C-86.09503727 6.95330092 -99.04739107 6.98745129 -112 7 C-112 6.01 -112 5.02 -112 4 C-75.7 4 -39.4 4 -2 4 C-1.34 2.68 -0.68 1.36 0 0 Z " fill="#B9DFF6" transform="translate(669,849)"/>
<path d="M0 0 C34.65 0 69.3 0 105 0 C105 0.66 105 1.32 105 2 C103.7184906 2.00808685 102.4369812 2.01617371 101.11663818 2.02450562 C89.05055554 2.10192785 76.98458621 2.18965729 64.91865158 2.28752708 C58.71515904 2.33751255 52.51168372 2.38384251 46.30810547 2.421875 C40.32340036 2.45869919 34.33883852 2.50505154 28.35425568 2.55806351 C26.06889606 2.57662267 23.78350572 2.59172497 21.49810028 2.60334396 C18.30164358 2.62018017 15.10551608 2.64920931 11.90917969 2.68115234 C10.96043472 2.68331253 10.01168976 2.68547272 9.03419495 2.68769836 C8.16203842 2.69886185 7.2898819 2.71002533 6.39129639 2.7215271 C5.25749102 2.72982324 5.25749102 2.72982324 4.10078049 2.73828697 C1.71742942 3.03520235 0.07510916 3.81834782 -2 5 C-1.34 3.35 -0.68 1.7 0 0 Z " fill="#C6E7FA" transform="translate(573,881)"/>
<path d="M0 0 C10.085625 -0.1546875 10.085625 -0.1546875 20.375 -0.3125 C23.52748291 -0.38078003 23.52748291 -0.38078003 26.74365234 -0.45043945 C45.21986662 -0.68267663 45.21986662 -0.68267663 52 5 C52.495 5.99 52.495 5.99 53 7 C52.01 7 51.02 7 50 7 C50 6.34 50 5.68 50 5 C40.49354568 0.98757577 30.50013457 1.44566875 20.375 1.3125 C11.279375 1.1578125 11.279375 1.1578125 2 1 C2 14.2 2 27.4 2 41 C15.86 41 29.72 41 44 41 C39.5 43.25 39.5 43.25 35.87402344 43.22705078 C35.06239746 43.22680908 34.25077148 43.22656738 33.41455078 43.22631836 C32.57134277 43.21608643 31.72813477 43.20585449 30.859375 43.1953125 C30.0770752 43.19329834 29.29477539 43.19128418 28.48876953 43.18920898 C25.57578643 43.17877122 22.66288712 43.15084861 19.75 43.125 C9.97375 43.063125 9.97375 43.063125 0 43 C0 28.81 0 14.62 0 0 Z " fill="#E5FCFE" transform="translate(2119,722)"/>
<path d="M0 0 C0.66 0 1.32 0 2 0 C2.66 1.65 3.32 3.3 4 5 C3.67 5 3.34 5 3 5 C2.67 35.03 2.34 65.06 2 96 C1.34 96 0.68 96 0 96 C0 64.32 0 32.64 0 0 Z " fill="#CEF0FD" transform="translate(1199,749)"/>
<path d="M0 0 C0.33 0 0.66 0 1 0 C1 31.02 1 62.04 1 94 C-3 90 -3 90 -4 87 C-3.34 87 -2.68 87 -2 87 C-1.9845388 85.38720909 -1.9845388 85.38720909 -1.96876526 83.74183655 C-1.87120581 73.63209811 -1.76848877 63.52242363 -1.66066074 53.41278934 C-1.60538658 48.21474947 -1.55195954 43.01670401 -1.50268555 37.81860352 C-1.4551081 32.80652738 -1.40276796 27.79452196 -1.34705925 22.78252983 C-1.3266056 20.8658975 -1.30789761 18.94924575 -1.29092598 17.03257942 C-1.26694834 14.35766674 -1.23688513 11.68288902 -1.20532227 9.00805664 C-1.1995668 8.2074884 -1.19381134 7.40692017 -1.18788147 6.58209229 C-1.11405216 1.11405216 -1.11405216 1.11405216 0 0 Z " fill="#C2E7FC" transform="translate(1268,691)"/>
<path d="M0 0 C9.24 0 18.48 0 28 0 C28.33 1.32 28.66 2.64 29 4 C28.34 3.67 27.68 3.34 27 3 C25.18828902 2.84693099 23.3716206 2.75053339 21.5546875 2.68359375 C20.47832031 2.64169922 19.40195313 2.59980469 18.29296875 2.55664062 C16.60107422 2.49766602 16.60107422 2.49766602 14.875 2.4375 C13.73933594 2.39431641 12.60367188 2.35113281 11.43359375 2.30664062 C8.62252232 2.2003396 5.81136055 2.09830595 3 2 C3.01047363 2.77899658 3.02094727 3.55799316 3.03173828 4.3605957 C3.21040517 19.71577132 3.12350253 34.77524523 1 50 C0.67 50 0.34 50 0 50 C0 33.5 0 17 0 0 Z " fill="#BCDDEE" transform="translate(2118,795)"/>
<path d="M0 0 C5 5 5 5 6 7 C4.35 6.67 2.7 6.34 1 6 C1 35.7 1 65.4 1 96 C0.67 96 0.34 96 0 96 C0 64.32 0 32.64 0 0 Z " fill="#C2EFFE" transform="translate(1025,749)"/>
<path d="M0 0 C-3.84671591 1.38481773 -7.02487123 0.60846854 -11 0 C-13.72021024 -0.11095627 -16.41809254 -0.18366373 -19.13842773 -0.20532227 C-19.91973557 -0.21522186 -20.7010434 -0.22512146 -21.50602722 -0.23532104 C-24.0651862 -0.26667943 -26.62436369 -0.29159095 -29.18359375 -0.31640625 C-30.96721352 -0.33699799 -32.75082865 -0.35799502 -34.53443909 -0.37937927 C-39.21145861 -0.43437074 -43.88852049 -0.48388039 -48.56561279 -0.53222656 C-53.34521215 -0.58260977 -58.12475058 -0.63820774 -62.90429688 -0.69335938 C-72.26947911 -0.80066023 -81.63471441 -0.90216664 -91 -1 C-91 -1.33 -91 -1.66 -91 -2 C-80.75955626 -2.20097086 -70.51895838 -2.38459452 -60.27781963 -2.54658794 C-55.52152139 -2.62235687 -50.76547437 -2.70391014 -46.00952148 -2.79907227 C-41.41257466 -2.8908335 -36.81560273 -2.9668914 -32.21821022 -3.03244972 C-30.47161106 -3.060042 -28.72508894 -3.09312017 -26.97870445 -3.13199425 C-17.52733241 -3.33864033 -9.00615158 -3.3576428 0 0 Z " fill="#E4FFFF" transform="translate(2174,692)"/>
<path d="M0 0 C12.54 0 25.08 0 38 0 C43.86206897 14.06896552 43.86206897 14.06896552 46.3125 20.625 C46.57611328 21.31722656 46.83972656 22.00945313 47.11132812 22.72265625 C49 27.75584416 49 27.75584416 49 30 C48.34 30 47.68 30 47 30 C46.51080078 28.62328125 46.51080078 28.62328125 46.01171875 27.21875 C43.21473228 19.34018173 43.21473228 19.34018173 40.3125 11.5 C39.13241744 8.35311316 38.05319007 5.19094183 37 2 C32.05208706 1.9753174 27.1042098 1.95714834 22.15625 1.94506836 C20.47232438 1.94003347 18.78840314 1.93320519 17.10449219 1.92456055 C14.68683797 1.91245804 12.26924144 1.90676332 9.8515625 1.90234375 C9.0963028 1.89718246 8.34104309 1.89202118 7.56289673 1.88670349 C3.65351891 1.80679812 3.65351891 1.80679812 0 3 C0 2.01 0 1.02 0 0 Z " fill="#377EB0" transform="translate(1502,691)"/>
<path d="M0 0 C1.97956441 0.14033111 3.95865141 0.2874123 5.9375 0.4375 C7.03964844 0.51871094 8.14179687 0.59992187 9.27734375 0.68359375 C12 1 12 1 13 2 C15.58956056 2.2313024 18.15874075 2.40346898 20.75390625 2.53515625 C21.52935287 2.57813339 22.3047995 2.62111053 23.10374451 2.66539001 C25.5897794 2.80215548 28.07610854 2.93239394 30.5625 3.0625 C32.24416396 3.15386841 33.925805 3.24565971 35.60742188 3.33789062 C39.73803091 3.56350852 43.86891537 3.78327185 48 4 C48 4.33 48 4.66 48 5 C31.25735749 7.34057235 16.18252456 5.72932738 0 1 C0 0.67 0 0.34 0 0 Z " fill="#3181B8" transform="translate(1953,842)"/>
<path d="M0 0 C2 3 2 3 3 8 C-9.21 8 -21.42 8 -34 8 C-34 7.34 -34 6.68 -34 6 C-22.78 6 -11.56 6 0 6 C0 4.02 0 2.04 0 0 Z " fill="#156DA9" transform="translate(1893,837)"/>
<path d="M0 0 C12.54 0 25.08 0 38 0 C37.34 1.32 36.68 2.64 36 4 C36 3.34 36 2.68 36 2 C24.12 2 12.24 2 0 2 C0 1.34 0 0.68 0 0 Z " fill="#307AAD" transform="translate(1621,691)"/>
<path d="M0 0 C0.66 0.33 1.32 0.66 2 1 C-0.07781457 4.75732602 -2.37668619 7.62096351 -5.4375 10.625 C-6.19933594 11.38039063 -6.96117187 12.13578125 -7.74609375 12.9140625 C-10 15 -10 15 -12.30078125 16.48046875 C-14.2530102 17.87316771 -14.2530102 17.87316771 -14.171875 20.26171875 C-14.03265625 21.06222656 -13.8934375 21.86273437 -13.75 22.6875 C-13.62109375 23.49574219 -13.4921875 24.30398438 -13.359375 25.13671875 C-13.24078125 25.75160156 -13.1221875 26.36648438 -13 27 C-15.57189568 24.01328244 -17.21616433 21.86142204 -18 18 C-17.53851562 17.62230469 -17.07703125 17.24460937 -16.6015625 16.85546875 C-10.49733764 11.70427504 -5.27578123 5.97849799 0 0 Z " fill="#1872B0" transform="translate(778,807)"/>
<path d="M0 0 C2.90375807 4.35563711 2.3826204 8.30812167 2.375 13.4375 C2.37483887 14.42782227 2.37467773 15.41814453 2.37451172 16.43847656 C2.25263394 24.26687857 1.85863487 33.14136513 -4 39 C-4.2995235 35.70524149 -3.98854687 33.97559985 -2.5625 30.9375 C1.60007295 21.8073282 0.12101791 9.8427904 0 0 Z " fill="#DAF3FB" transform="translate(2361,754)"/>
<path d="M0 0 C4.45821166 -0.08674429 8.91620804 -0.14030513 13.375 -0.1875 C14.64601563 -0.21263672 15.91703125 -0.23777344 17.2265625 -0.26367188 C18.43828125 -0.27333984 19.65 -0.28300781 20.8984375 -0.29296875 C22.01911621 -0.3086792 23.13979492 -0.32438965 24.29443359 -0.34057617 C25.18727051 -0.22818604 26.08010742 -0.1157959 27 0 C27.66 0.99 28.32 1.98 29 3 C14.15 2.505 14.15 2.505 -1 2 C-0.67 1.34 -0.34 0.68 0 0 Z " fill="#CCEAF8" transform="translate(1974,687)"/>
<path d="M0 0 C2.83236991 2.64354525 4.21844267 4.43688534 6 8 C-7.53 8 -21.06 8 -35 8 C-35.33 7.34 -35.66 6.68 -36 6 C-17.19 6.495 -17.19 6.495 2 7 C1.34 4.69 0.68 2.38 0 0 Z " fill="#1F6DA3" transform="translate(2213,837)"/>
<path d="M0 0 C0.66 0.33 1.32 0.66 2 1 C2.02684312 3.81256281 2.04676188 6.62487241 2.0625 9.4375 C2.07087891 10.23994141 2.07925781 11.04238281 2.08789062 11.86914062 C2.0965143 13.91295221 2.0522815 15.95683902 2 18 C1.67 18.33 1.34 18.66 1 19 C0.75650989 21.51606449 0.61636634 24.03086024 0.4765625 26.5546875 C-0.06506728 29.33386981 -0.83216942 30.24950579 -3 32 C-2 25 -2 25 -1.5 21.84375 C-0.92404387 17.41608725 -0.65657945 13.01950972 -0.4375 8.5625 C-0.39431641 7.73556641 -0.35113281 6.90863281 -0.30664062 6.05664062 C-0.20161967 4.03790451 -0.10041441 2.01897049 0 0 Z " fill="#CBEBF8" transform="translate(2399,761)"/>
<path d="M0 0 C0.66 0.99 1.32 1.98 2 3 C1.34 3 0.68 3 0 3 C-0.13277344 3.69867187 -0.26554688 4.39734375 -0.40234375 5.1171875 C-0.57894531 6.02726563 -0.75554688 6.93734375 -0.9375 7.875 C-1.11152344 8.77992188 -1.28554688 9.68484375 -1.46484375 10.6171875 C-2 13 -2 13 -3 15 C-3.32962213 22.38741358 -3.16851581 29.69677616 -2 37 C-6.70705235 29.93942148 -5.86974508 20.2004536 -5 12 C-3.97329137 7.71900977 -2.14337127 3.8351036 0 0 Z " fill="#2477B0" transform="translate(609,587)"/>
<path d="M0 0 C8.25 0.33 16.5 0.66 25 1 C25 1.66 25 2.32 25 3 C22.33305052 3.05455124 19.66724502 3.09393392 17 3.125 C15.88431641 3.15013672 15.88431641 3.15013672 14.74609375 3.17578125 C9.49451557 3.22144715 5.0483054 2.45712451 0 1 C0 0.67 0 0.34 0 0 Z " fill="#3080B8" transform="translate(1396,845)"/>
<path d="M0 0 C0.33 0 0.66 0 1 0 C1.10883596 2.37625177 1.18766696 4.74743976 1.25 7.125 C1.30027344 8.12273438 1.30027344 8.12273438 1.3515625 9.140625 C1.4686338 15.11126149 -0.58153788 18.33462683 -4.4921875 22.64453125 C-7.92849686 25.54695073 -10.52711348 26.68050811 -15 27 C-13.45620382 25.97080255 -11.9083859 24.94515908 -10.31640625 23.9921875 C-5.41061146 20.86733826 -2.66287406 17.61905245 -1 12 C-0.42114506 8.00197649 -0.13453129 4.03593866 0 0 Z " fill="#1E74AE" transform="translate(2178,737)"/>
<path d="M0 0 C1.13976457 3.62226547 0.65480833 5.3429073 -0.96875 8.79296875 C-2.27892409 11.59693981 -3.44612534 14.45098739 -4.625 17.3125 C-6.88321168 22.76642336 -6.88321168 22.76642336 -8 25 C-8.66 25 -9.32 25 -10 25 C-7.37589493 16.35588919 -3.68616238 8.23074615 0 0 Z " fill="#2679B1" transform="translate(1789,704)"/>
<path d="M0 0 C0.33 0.99 0.66 1.98 1 3 C0.15695312 3.83144531 -0.68609375 4.66289063 -1.5546875 5.51953125 C-2.66159075 6.61705397 -3.7683543 7.71471759 -4.875 8.8125 C-5.43058594 9.35970703 -5.98617188 9.90691406 -6.55859375 10.47070312 C-7.36103516 11.26831055 -7.36103516 11.26831055 -8.1796875 12.08203125 C-8.67194824 12.56905518 -9.16420898 13.0560791 -9.67138672 13.55786133 C-11.22588489 15.17003501 -11.22588489 15.17003501 -13 18 C-13.66 17.67 -14.32 17.34 -15 17 C-10.43071457 10.83146467 -5.55661824 5.29682829 0 0 Z " fill="#1F75B0" transform="translate(1360,707)"/>
<path d="M0 0 C0.99 0.33 1.98 0.66 3 1 C0.60981733 4.09759099 -0.53555951 4.93945477 -4.48339844 5.45410156 C-5.85888657 5.45347228 -7.23448254 5.43110599 -8.609375 5.390625 C-9.33618469 5.38496521 -10.06299438 5.37930542 -10.81182861 5.37347412 C-13.12523245 5.35114553 -15.4370672 5.30096048 -17.75 5.25 C-19.32159216 5.22993023 -20.89320868 5.21168029 -22.46484375 5.1953125 C-26.31049717 5.15129293 -30.15498289 5.08229375 -34 5 C-34 4.67 -34 4.34 -34 4 C-23.44 4 -12.88 4 -2 4 C-1.34 2.68 -0.68 1.36 0 0 Z " fill="#E5F8FC" transform="translate(669,849)"/>
<path d="M0 0 C3.87493616 -0.05834395 7.74975836 -0.09371201 11.625 -0.125 C13.26662109 -0.15013672 13.26662109 -0.15013672 14.94140625 -0.17578125 C24.98079979 -0.23662606 24.98079979 -0.23662606 30 2 C29.67 2.66 29.34 3.32 29 4 C27.741875 3.67 26.48375 3.34 25.1875 3 C16.91955361 1.300943 8.3956621 1.84484403 0 2 C0 1.34 0 0.68 0 0 Z " fill="#176DA9" transform="translate(1974,719)"/>
<path d="M0 0 C0.33 0.66 0.66 1.32 1 2 C0.109375 4.2421875 0.109375 4.2421875 -1.25 6.875 C-1.68828125 7.73867188 -2.1265625 8.60234375 -2.578125 9.4921875 C-3.90402984 11.83073394 -5.37274372 13.8666801 -7 16 C-7.70822615 17.21734246 -8.39736265 18.44608981 -9.0625 19.6875 C-11 23 -11 23 -13 24 C-11.20469881 18.95263894 -8.55008635 14.40609448 -5.9375 9.75 C-5.47794922 8.92242188 -5.01839844 8.09484375 -4.54492188 7.2421875 C-1.13705937 1.13705937 -1.13705937 1.13705937 0 0 Z " fill="#D5F1FA" transform="translate(623,667)"/>
<path d="M0 0 C2.14965431 3.22448147 2.22152284 3.79930965 1.9765625 7.44921875 C1.925 8.29677734 1.8734375 9.14433594 1.8203125 10.01757812 C1.75585938 10.89865234 1.69140625 11.77972656 1.625 12.6875 C1.56828125 13.58017578 1.5115625 14.47285156 1.453125 15.39257812 C1.31173702 17.59587413 1.16034022 19.79801539 1 22 C0.34 21.67 -0.32 21.34 -1 21 C-1.02710123 18.4374282 -1.04688771 15.87514635 -1.0625 13.3125 C-1.07087891 12.59126953 -1.07925781 11.87003906 -1.08789062 11.12695312 C-1.10543632 7.28444618 -0.93524221 3.73360474 0 0 Z " fill="#3384BC" transform="translate(1333,754)"/>
<path d="M0 0 C0 0.33 0 0.66 0 1 C-5.98368341 3.66641331 -11.96522925 3.22314726 -18.375 3.125 C-19.49261719 3.11597656 -20.61023437 3.10695313 -21.76171875 3.09765625 C-24.50803462 3.07418346 -27.25390472 3.04134728 -30 3 C-30.33 2.34 -30.66 1.68 -31 1 C-30.40050537 1.01047363 -29.80101074 1.02094727 -29.18334961 1.03173828 C-26.4347767 1.07362837 -23.68627126 1.09943003 -20.9375 1.125 C-19.99455078 1.14175781 -19.05160156 1.15851562 -18.08007812 1.17578125 C-13.86285786 1.20516954 -10.05148806 1.19688622 -6.00390625 -0.0703125 C-3 -1 -3 -1 0 0 Z " fill="#146CA8" transform="translate(2336,814)"/>
<path d="M0 0 C0 3.54404336 -0.60989485 4.10267905 -2.875 6.6875 C-3.40867187 7.31011719 -3.94234375 7.93273437 -4.4921875 8.57421875 C-6 10 -6 10 -8 10 C-8.2475 10.5775 -8.495 11.155 -8.75 11.75 C-10.16683317 14.3002997 -11.87627537 16.01785701 -14 18 C-14.66 17.67 -15.32 17.34 -16 17 C-10.72 11.39 -5.44 5.78 0 0 Z " fill="#2476B0" transform="translate(707,811)"/>
<path d="M0 0 C0 0.66 0 1.32 0 2 C-1.06541016 2.30744141 -1.06541016 2.30744141 -2.15234375 2.62109375 C-3.53099609 3.02521484 -3.53099609 3.02521484 -4.9375 3.4375 C-6.31228516 3.83775391 -6.31228516 3.83775391 -7.71484375 4.24609375 C-9.9402493 4.79026051 -9.9402493 4.79026051 -11 6 C-12.9951727 6.25744164 -14.99112677 6.51199834 -16.9921875 6.71875 C-19.20138785 6.9662595 -19.20138785 6.9662595 -22 8 C-24.6875 7.5625 -24.6875 7.5625 -27 7 C-27 6.67 -27 6.34 -27 6 C-25.94941406 5.81824219 -24.89882812 5.63648438 -23.81640625 5.44921875 C-16.36986745 4.12714333 -7.24396383 0 0 0 Z " fill="#CEECF8" transform="translate(2353,841)"/>
<path d="M0 0 C-3.04598747 2.03065831 -4.12812681 2.29482404 -7.625 2.5625 C-10.61114422 2.58977223 -10.61114422 2.58977223 -13 4 C-14.51928038 4.07179964 -16.04167482 4.08392007 -17.5625 4.0625 C-18.38878906 4.05347656 -19.21507812 4.04445313 -20.06640625 4.03515625 C-20.70449219 4.02355469 -21.34257813 4.01195312 -22 4 C-22 3.34 -22 2.68 -22 2 C-20.95199219 1.86722656 -19.90398437 1.73445312 -18.82421875 1.59765625 C-17.44529222 1.41942765 -16.06638707 1.24103359 -14.6875 1.0625 C-13.65206055 0.93198242 -13.65206055 0.93198242 -12.59570312 0.79882812 C-1.91499256 -0.59430804 -1.91499256 -0.59430804 0 0 Z " fill="#D2EDF8" transform="translate(2015,845)"/>
<path d="M0 0 C0.66 0.33 1.32 0.66 2 1 C-1.63 7.27 -5.26 13.54 -9 20 C-10 16 -10 16 -9.0625 13.75 C-8.711875 13.1725 -8.36125 12.595 -8 12 C-7.34 12 -6.68 12 -6 12 C-5.83177734 11.14148438 -5.83177734 11.14148438 -5.66015625 10.265625 C-4.92776966 7.75210888 -3.86145147 5.94069457 -2.4375 3.75 C-1.98246094 3.04359375 -1.52742187 2.3371875 -1.05859375 1.609375 C-0.70925781 1.07828125 -0.35992188 0.5471875 0 0 Z " fill="#DBF5FC" transform="translate(521,786)"/>
<path d="M0 0 C0.33 0.99 0.66 1.98 1 3 C-3.62 7.62 -8.24 12.24 -13 17 C-13.66 16.67 -14.32 16.34 -15 16 C-14.41992188 15.43152344 -13.83984375 14.86304688 -13.2421875 14.27734375 C-8.59383097 9.68268111 -4.17366549 5.029802 0 0 Z " fill="#DFF6FC" transform="translate(737,746)"/>
<path d="M0 0 C0.95287489 3.01958327 1.14972335 3.67809479 -0.25 6.6875 C-0.8275 7.780625 -1.405 8.87375 -2 10 C-3.08525569 12.97350327 -4.0536411 15.97970564 -5 19 C-5.66 18.67 -6.32 18.34 -7 18 C-5.06375702 11.79522136 -2.74390859 5.89174281 0 0 Z " fill="#2478B1" transform="translate(1596,759)"/>
<path d="M0 0 C-3.85790686 1.38884647 -7.00611359 0.6068169 -11 0 C-14.64273481 -0.25934192 -18.28889282 -0.41037079 -21.9375 -0.5625 C-22.90751953 -0.60568359 -23.87753906 -0.64886719 -24.87695312 -0.69335938 C-27.25118601 -0.79862093 -29.62550921 -0.90075707 -32 -1 C-32 -1.33 -32 -1.66 -32 -2 C-9.19872014 -3.81305261 -9.19872014 -3.81305261 0 0 Z " fill="#D4F3FA" transform="translate(2174,692)"/>
<path d="M0 0 C1 3.875 1 3.875 1 5 C7.93 5.33 14.86 5.66 22 6 C22 6.33 22 6.66 22 7 C14.08 7 6.16 7 -2 7 C-1 2 -1 2 0 0 Z " fill="#E6F9FD" transform="translate(1794,774)"/>
<path d="M0 0 C2.66788579 2.66788579 2.26148845 4.70055344 2.2734375 8.33007812 C2.26570312 9.14927734 2.25796875 9.96847656 2.25 10.8125 C2.25773438 11.62009766 2.26546875 12.42769531 2.2734375 13.25976562 C2.25915942 17.61814903 2.02764323 21.03322177 0 25 C-0.66 24.67 -1.32 24.34 -2 24 C-1.505 22.515 -1.505 22.515 -1 21 C0.75332445 14.18425987 0.15246699 6.97959996 0 0 Z " fill="#DDF5FC" transform="translate(679,721)"/>
<path d="M0 0 C0.33 0.66 0.66 1.32 1 2 C-2.86364295 6.48717034 -6.74790208 10.87675353 -11 15 C-11.66 14.67 -12.32 14.34 -13 14 C-8.71 9.38 -4.42 4.76 0 0 Z " fill="#D9F3FA" transform="translate(696,861)"/>
<path d="M0 0 C0.33 0 0.66 0 1 0 C1.6422101 8.43435936 0.93246104 14.02409081 -4 21 C-4.99 21 -5.98 21 -7 21 C-6.67 20.34 -6.34 19.68 -6 19 C-5.34 19 -4.68 19 -4 19 C-3.87625 18.46375 -3.7525 17.9275 -3.625 17.375 C-3 15 -3 15 -2 12.3125 C-0.76675896 8.22738906 -0.35794523 4.23882507 0 0 Z " fill="#CAE9F6" transform="translate(2177,737)"/>
<path d="M0 0 C0.66 0.33 1.32 0.66 2 1 C-5.28399258 9.68572311 -5.28399258 9.68572311 -9 13 C-9.99 13 -10.98 13 -12 13 C-10.18777319 11.02058257 -8.37523172 9.04145495 -6.5625 7.0625 C-6.04623047 6.49853516 -5.52996094 5.93457031 -4.99804688 5.35351562 C-1.11328125 1.11328125 -1.11328125 1.11328125 0 0 Z " fill="#2275B0" transform="translate(1931,707)"/>
<path d="M0 0 C3 4.38461538 3 4.38461538 3 7 C2.34 7 1.68 7 1 7 C-0.625 5 -0.625 5 -2 3 C-2.763125 3.825 -3.52625 4.65 -4.3125 5.5 C-7 8 -7 8 -10 8 C-8.71451591 6.66070495 -7.42141845 5.32871357 -6.125 4 C-5.04605469 2.88625 -5.04605469 2.88625 -3.9453125 1.75 C-2 0 -2 0 0 0 Z " fill="#2A79B0" transform="translate(734,856)"/>
<path d="M0 0 C0.33 0.66 0.66 1.32 1 2 C0.03567924 3.68756133 -0.9731657 5.3497306 -2 7 C-3.00484883 9.33124929 -4.00522247 11.66443537 -5 14 C-5.99 15.485 -5.99 15.485 -7 17 C-7.66 17 -8.32 17 -9 17 C-7.51481201 12.95698825 -5.57122002 9.38853744 -3.375 5.6875 C-2.74335937 4.61886719 -2.11171875 3.55023437 -1.4609375 2.44921875 C-0.97882812 1.64097656 -0.49671875 0.83273437 0 0 Z " fill="#2074AF" transform="translate(542,753)"/>
<path d="M0 0 C0.66 0.33 1.32 0.66 2 1 C1.52949219 1.53109375 1.05898437 2.0621875 0.57421875 2.609375 C-0.04839844 3.31578125 -0.67101563 4.0221875 -1.3125 4.75 C-1.92738281 5.44609375 -2.54226563 6.1421875 -3.17578125 6.859375 C-5.02916165 8.96978683 -5.02916165 8.96978683 -6.60546875 11.265625 C-7.06566406 11.83796875 -7.52585937 12.4103125 -8 13 C-8.66 13 -9.32 13 -10 13 C-8.56501627 9.79111679 -6.78256013 7.42193016 -4.4375 4.8125 C-3.81746094 4.11769531 -3.19742187 3.42289063 -2.55859375 2.70703125 C-1.72141231 1.79011824 -0.8779528 0.8779528 0 0 Z " fill="#DDF5FC" transform="translate(1957,729)"/>
<path d="M0 0 C-0.99 0.33 -1.98 0.66 -3 1 C-1.44499019 4.81684226 1.03595495 7.19195732 4 10 C0.27961985 10 -0.44902879 9.09675609 -3.1875 6.6875 C-3.90292969 6.07261719 -4.61835937 5.45773437 -5.35546875 4.82421875 C-7 3 -7 3 -7 0 C-3.86650268 -1.04449911 -3.01031744 -0.93423645 0 0 Z " fill="#2D7BB2" transform="translate(762,708)"/>
<path d="M0 0 C0.33 0.99 0.66 1.98 1 3 C-2.63 6.63 -6.26 10.26 -10 14 C-10.66 13.67 -11.32 13.34 -12 13 C-8.04 8.71 -4.08 4.42 0 0 Z " fill="#D9F2FA" transform="translate(725,830)"/>
<path d="M0 0 C0 0.33 0 0.66 0 1 C-1.15628906 1.09087891 -1.15628906 1.09087891 -2.3359375 1.18359375 C-3.84027344 1.30927734 -3.84027344 1.30927734 -5.375 1.4375 C-6.87160156 1.55931641 -6.87160156 1.55931641 -8.3984375 1.68359375 C-10.97927613 1.84965626 -10.97927613 1.84965626 -13 3 C-14.70702735 3.06996014 -16.41668003 3.08440154 -18.125 3.0625 C-19.03507812 3.05347656 -19.94515625 3.04445313 -20.8828125 3.03515625 C-21.58148437 3.02355469 -22.28015625 3.01195312 -23 3 C-23 2.67 -23 2.34 -23 2 C-15.26134446 -0.13480153 -7.99976044 -0.20483028 0 0 Z " fill="#C4E4F4" transform="translate(1993,720)"/>
<path d="M0 0 C0.33 0.99 0.66 1.98 1 3 C-1.97 5.97 -4.94 8.94 -8 12 C-8.66 11.67 -9.32 11.34 -10 11 C-8.89718873 9.72799029 -7.79269231 8.45744147 -6.6875 7.1875 C-6.07261719 6.47980469 -5.45773437 5.77210938 -4.82421875 5.04296875 C-3.26665665 3.29863261 -1.67341125 1.63221959 0 0 Z " fill="#1771B0" transform="translate(625,703)"/>
<path d="M0 0 C0.33 0.66 0.66 1.32 1 2 C-1.27356627 7.17867872 -4.22889685 12.07116041 -7 17 C-7.66 17 -8.32 17 -9 17 C-7.51481201 12.95698825 -5.57122002 9.38853744 -3.375 5.6875 C-2.74335937 4.61886719 -2.11171875 3.55023437 -1.4609375 2.44921875 C-0.97882812 1.64097656 -0.49671875 0.83273437 0 0 Z " fill="#D4F0F9" transform="translate(574,751)"/>
<path d="M0 0 C3.17432368 2.59717392 4.09388894 5.0270515 5 9 C5.15860869 13.00614856 5.11670457 16.99314304 5 21 C4.67 21 4.34 21 4 21 C3.96261719 20.38253906 3.92523437 19.76507812 3.88671875 19.12890625 C3.46368114 13.67918643 2.53339051 8.93635735 0.62109375 3.8125 C0 2 0 2 0 0 Z " fill="#3984B9" transform="translate(675,716)"/>
<path d="M0 0 C0.33 0 0.66 0 1 0 C0.855625 0.928125 0.71125 1.85625 0.5625 2.8125 C-0.16364963 7.85405316 -0.5687807 12.92629204 -1 18 C-2.93818597 14.77962947 -3.18000929 12.71165914 -2.75 9 C-2.66234375 8.154375 -2.5746875 7.30875 -2.484375 6.4375 C-1.99747499 3.98729349 -1.22317883 2.1656281 0 0 Z " fill="#2477B1" transform="translate(2240,744)"/>
<path d="M0 0 C0.66 0 1.32 0 2 0 C8.59803935 12.61955098 8.59803935 12.61955098 7 18 C5.82887054 15.37690901 4.66294036 12.75171858 3.5 10.125 C3.16613281 9.37863281 2.83226562 8.63226562 2.48828125 7.86328125 C2.17246094 7.14785156 1.85664062 6.43242188 1.53125 5.6953125 C1.23798828 5.03547363 0.94472656 4.37563477 0.64257812 3.69580078 C0 2 0 2 0 0 Z " fill="#D8F3FB" transform="translate(1833,698)"/>
<path d="M0 0 C-1.40844718 3.21524305 -3.10344786 5.32183868 -5.625 7.75 C-6.57246094 8.67039062 -6.57246094 8.67039062 -7.5390625 9.609375 C-8.02117188 10.06828125 -8.50328125 10.5271875 -9 11 C-9.33 10.01 -9.66 9.02 -10 8 C-9.34 8 -8.68 8 -8 8 C-7.7525 7.4225 -7.505 6.845 -7.25 6.25 C-5.58207452 3.24773413 -3.67725381 0 0 0 Z " fill="#D6F0FA" transform="translate(715,802)"/>
<path d="M0 0 C0.33 0.66 0.66 1.32 1 2 C-0.07674702 4.28258633 -1.19546116 6.4356434 -2.4375 8.625 C-2.77587891 9.23601563 -3.11425781 9.84703125 -3.46289062 10.4765625 C-4.30146192 11.988353 -5.14982577 13.49470399 -6 15 C-6.99 15 -7.98 15 -9 15 C-6.03 10.05 -3.06 5.1 0 0 Z " fill="#2677AF" transform="translate(524,784)"/>
<path d="M0 0 C2.84323792 1.15835619 4.31388887 2.3217361 6.5 4.5625 C8.86027002 6.86376327 9.81596775 7.64621864 13 8 C12.34 9.32 11.68 10.64 11 12 C9.16364422 10.19047409 7.33083792 8.37759362 5.5 6.5625 C4.97535156 6.04623047 4.45070313 5.52996094 3.91015625 4.99804688 C2.58775448 3.68423213 1.29164432 2.34406495 0 1 C0 0.67 0 0.34 0 0 Z " fill="#2372AA" transform="translate(815,765)"/>
<path d="M0 0 C1.9375 0.375 1.9375 0.375 4 1 C4.33 1.66 4.66 2.32 5 3 C3.9790625 3.0309375 3.9790625 3.0309375 2.9375 3.0625 C-1.46915407 4.46887896 -3.94762374 7.6309507 -7 11 C-7.66 10.67 -8.32 10.34 -9 10 C-8.27683594 9.29423828 -8.27683594 9.29423828 -7.5390625 8.57421875 C-6.90742187 7.95160156 -6.27578125 7.32898438 -5.625 6.6875 C-4.68527344 5.76517578 -4.68527344 5.76517578 -3.7265625 4.82421875 C-1.81913393 2.91187472 -1.81913393 2.91187472 0 0 Z " fill="#DFF7FC" transform="translate(798,752)"/>
<path d="M0 0 C0.66 0.33 1.32 0.66 2 1 C-0.64 5.62 -3.28 10.24 -6 15 C-7 12 -7 12 -6.00390625 9.51953125 C-5.52824219 8.62621094 -5.05257812 7.73289062 -4.5625 6.8125 C-4.08941406 5.91144531 -3.61632812 5.01039063 -3.12890625 4.08203125 C-2.75636719 3.39496094 -2.38382813 2.70789063 -2 2 C-1.34 2 -0.68 2 0 2 C0 1.34 0 0.68 0 0 Z " fill="#D8F3FC" transform="translate(543,748)"/>
<path d="M0 0 C0.33 0.66 0.66 1.32 1 2 C-0.00703987 4.25103029 -1.06020716 6.34904118 -2.25 8.5 C-2.56324219 9.09425781 -2.87648438 9.68851563 -3.19921875 10.30078125 C-4.89581179 13.41941494 -5.99051251 14.99367501 -9 17 C-7.51481201 12.95698825 -5.57122002 9.38853744 -3.375 5.6875 C-2.74335937 4.61886719 -2.11171875 3.55023437 -1.4609375 2.44921875 C-0.97882812 1.64097656 -0.49671875 0.83273437 0 0 Z " fill="#2174AE" transform="translate(594,664)"/>
<path d="M0 0 C0.33 0.99 0.66 1.98 1 3 C-2.3 6.3 -5.6 9.6 -9 13 C-9.66 12.67 -10.32 12.34 -11 12 C-10.54109375 11.55269531 -10.0821875 11.10539063 -9.609375 10.64453125 C-6.16447701 7.25029352 -2.92744915 3.86423288 0 0 Z " fill="#DCF4FB" transform="translate(785,766)"/>
<path d="M0 0 C0.33 0 0.66 0 1 0 C1 6.27 1 12.54 1 19 C-0.32 17.68 -1.64 16.36 -3 15 C-2.34 14.67 -1.68 14.34 -1 14 C-0.52998967 10.72444392 -0.52998967 10.72444392 -0.375 6.9375 C-0.30023437 5.64714844 -0.22546875 4.35679687 -0.1484375 3.02734375 C-0.09945313 2.02832031 -0.05046875 1.02929688 0 0 Z " fill="#E5FAFD" transform="translate(1267,764)"/>
<path d="M0 0 C0.66 0 1.32 0 2 0 C0.59155282 3.21524305 -1.10344786 5.32183868 -3.625 7.75 C-4.57246094 8.67039062 -4.57246094 8.67039062 -5.5390625 9.609375 C-6.02117188 10.06828125 -6.50328125 10.5271875 -7 11 C-7.33 10.01 -7.66 9.02 -8 8 C-7.34 8 -6.68 8 -6 8 C-6 7.34 -6 6.68 -6 6 C-5.34 6 -4.68 6 -4 6 C-4 5.34 -4 4.68 -4 4 C-3.34 4 -2.68 4 -2 4 C-1.34 2.68 -0.68 1.36 0 0 Z " fill="#D3EFFA" transform="translate(757,755)"/>
<path d="M0 0 C0.33 0 0.66 0 1 0 C1.47727616 4.93185362 0.01131706 9.53450707 -2 14 C-2.99 14.495 -2.99 14.495 -4 15 C-3.43179252 9.54520815 -2.05362055 5.08940744 0 0 Z " fill="#2879B1" transform="translate(1338,737)"/>
<path d="M0 0 C-0.33 0.66 -0.66 1.32 -1 2 C-3.32716 2.37400786 -5.66117862 2.70764733 -8 3 C-8.33 3.33 -8.66 3.66 -9 4 C-10.66617115 4.04063832 -12.33388095 4.042721 -14 4 C-13 2 -13 2 -10.375 0.875 C-6.78189212 -0.05654649 -3.69584376 -0.14783375 0 0 Z " fill="#2075B0" transform="translate(1969,691)"/>
<path d="M0 0 C1.37095624 3.69037278 0.60010967 5.70883835 -0.9375 9.25 C-1.31777344 10.14203125 -1.69804688 11.0340625 -2.08984375 11.953125 C-2.39019531 12.62859375 -2.69054688 13.3040625 -3 14 C-3.66 13.67 -4.32 13.34 -5 13 C-4.54803755 11.39402675 -4.08817673 9.79027492 -3.625 8.1875 C-3.36976562 7.29417969 -3.11453125 6.40085937 -2.8515625 5.48046875 C-2 3 -2 3 0 0 Z " fill="#2477B1" transform="translate(1618,700)"/>
<path d="M0 0 C0.33 0 0.66 0 1 0 C1.56561146 5.65611463 -0.28608722 9.22642128 -3 14 C-3.66 14 -4.32 14 -5 14 C-3.45730076 9.27934033 -1.92205381 4.58335908 0 0 Z " fill="#2779B1" transform="translate(1766,757)"/>
<path d="M0 0 C0.93045933 2.55144824 1.08564091 3.74006478 0.22265625 6.359375 C-0.16019531 7.14828125 -0.54304688 7.9371875 -0.9375 8.75 C-1.50791016 9.94882812 -1.50791016 9.94882812 -2.08984375 11.171875 C-2.39019531 11.77515625 -2.69054688 12.3784375 -3 13 C-3.66 13 -4.32 13 -5 13 C-4.54554036 11.58208592 -4.08625056 10.16571954 -3.625 8.75 C-3.24214844 7.56664062 -3.24214844 7.56664062 -2.8515625 6.359375 C-2.04826333 4.13372042 -1.10288338 2.09068328 0 0 Z " fill="#2A7CB3" transform="translate(1774,739)"/>
<path d="M0 0 C1.93833996 0.08715017 3.8757429 0.19532964 5.8125 0.3125 C7.43091797 0.39951172 7.43091797 0.39951172 9.08203125 0.48828125 C12.17497517 1.03068507 13.13022903 1.55289624 15 4 C9.76119922 3.44854729 5.02649303 2.57077907 0 1 C0 0.67 0 0.34 0 0 Z " fill="#3180B6" transform="translate(1953,842)"/>
<path d="M0 0 C4.875 4.75 4.875 4.75 6 7 C4.35 6.67 2.7 6.34 1 6 C0.67 6.99 0.34 7.98 0 9 C0 6.03 0 3.06 0 0 Z " fill="#D4F8FE" transform="translate(1025,749)"/>
<path d="M0 0 C0.33 0 0.66 0 1 0 C1.24867947 2.60364409 1.47457902 5.20589894 1.6875 7.8125 C1.79674805 8.91948242 1.79674805 8.91948242 1.90820312 10.04882812 C2.07421875 12.20703125 2.07421875 12.20703125 2 16 C1.01 16.99 0.02 17.98 -1 19 C-0.67 12.73 -0.34 6.46 0 0 Z " fill="#C5EBFC" transform="translate(2213,737)"/>
<path d="M0 0 C0.66 0 1.32 0 2 0 C2.66 1.98 3.32 3.96 4 6 C3.01 5.67 2.02 5.34 1 5 C0.67 5.66 0.34 6.32 0 7 C-0.66 7 -1.32 7 -2 7 C-1.34 4.69 -0.68 2.38 0 0 Z " fill="#CCEEFA" transform="translate(1811,732)"/>
<path d="M0 0 C0.88336837 2.4667645 1.1312406 3.63859372 0.22265625 6.140625 C-0.16019531 6.83671875 -0.54304688 7.5328125 -0.9375 8.25 C-1.31777344 8.95640625 -1.69804687 9.6628125 -2.08984375 10.390625 C-2.39019531 10.92171875 -2.69054688 11.4528125 -3 12 C-3.66 11.67 -4.32 11.34 -5 11 C-3.77472971 6.94718288 -2.30119506 3.55639236 0 0 Z " fill="#287AB1" transform="translate(2248,725)"/>
<path d="M0 0 C0.33 0.99 0.66 1.98 1 3 C-1.31 5.31 -3.62 7.62 -6 10 C-6.66 9.67 -7.32 9.34 -8 9 C-5.36 6.03 -2.72 3.06 0 0 Z " fill="#D8F0F8" transform="translate(707,849)"/>
<path d="M0 0 C0.66 0.99 1.32 1.98 2 3 C1.3203125 5.26171875 1.3203125 5.26171875 0.125 7.6875 C-0.45894531 8.89986328 -0.45894531 8.89986328 -1.0546875 10.13671875 C-1.52261719 11.05904297 -1.52261719 11.05904297 -2 12 C-2.66 11.67 -3.32 11.34 -4 11 C-2.7874262 7.27566618 -1.49140021 3.62197194 0 0 Z " fill="#277AB3" transform="translate(1745,806)"/>
<path d="M0 0 C0.33 0.99 0.66 1.98 1 3 C-0.21484375 4.82421875 -0.21484375 4.82421875 -1.9375 6.6875 C-2.50339844 7.31011719 -3.06929687 7.93273437 -3.65234375 8.57421875 C-4.09707031 9.04472656 -4.54179687 9.51523437 -5 10 C-5.66 9.67 -6.32 9.34 -7 9 C-4.69 6.03 -2.38 3.06 0 0 Z " fill="#2779B1" transform="translate(2256,715)"/>
<path d="M0 0 C-0.33 0.99 -0.66 1.98 -1 3 C-4.67566856 4.61729417 -9.07239675 4.06546005 -13 4 C-13 3.67 -13 3.34 -13 3 C-11.2092015 2.49689942 -9.41733089 1.99761372 -7.625 1.5 C-6.62726562 1.2215625 -5.62953125 0.943125 -4.6015625 0.65625 C-2 0 -2 0 0 0 Z " fill="#2F7DB2" transform="translate(846,683)"/>
<path d="M0 0 C0.33 0 0.66 0 1 0 C1.08131463 1.43655854 1.13933559 2.8744483 1.1875 4.3125 C1.23970703 5.51326172 1.23970703 5.51326172 1.29296875 6.73828125 C0.93801608 9.47851584 0.10633718 10.29171079 -2 12 C-1.85831863 10.56208484 -1.71148957 9.1246763 -1.5625 7.6875 C-1.48128906 6.88699219 -1.40007813 6.08648438 -1.31640625 5.26171875 C-1 3 -1 3 0 0 Z " fill="#C7E7F4" transform="translate(834,741)"/>
<path d="M0 0 C1.47177418 3.82661288 0.57016757 6.31010622 -1 10 C-1.96715918 11.03179606 -2.96225307 12.0392288 -4 13 C-3.52140759 11.39566191 -3.04210442 9.79153584 -2.5625 8.1875 C-2.29566406 7.29417969 -2.02882813 6.40085937 -1.75390625 5.48046875 C-1.19612127 3.64526945 -0.60655425 1.81966274 0 0 Z " fill="#327FB4" transform="translate(1607,727)"/>
<path d="M0 0 C1 3 1 3 0.22265625 5.04296875 C-0.16019531 5.75066406 -0.54304688 6.45835937 -0.9375 7.1875 C-1.31777344 7.90292969 -1.69804688 8.61835937 -2.08984375 9.35546875 C-2.54037109 10.16951172 -2.54037109 10.16951172 -3 11 C-3.66 11 -4.32 11 -5 11 C-3.77472971 6.94718288 -2.30119506 3.55639236 0 0 Z " fill="#297AB2" transform="translate(1344,725)"/>
<path d="M0 0 C4.08718695 -0.24042276 7.17679443 0.57741188 11 2 C10.67 2.66 10.34 3.32 10 4 C6.7 3.34 3.4 2.68 0 2 C0 1.34 0 0.68 0 0 Z " fill="#2A7CB3" transform="translate(1993,719)"/>
<path d="M0 0 C3.98175544 2.10148204 6.35039045 4.36905358 9 8 C8.67 8.66 8.34 9.32 8 10 C7.59007812 9.50628906 7.18015625 9.01257813 6.7578125 8.50390625 C6.21898437 7.86324219 5.68015625 7.22257813 5.125 6.5625 C4.59132813 5.92441406 4.05765625 5.28632812 3.5078125 4.62890625 C2.0777243 2.89194996 2.0777243 2.89194996 0 2 C0 1.34 0 0.68 0 0 Z " fill="#2677B0" transform="translate(666,705)"/>
<path d="M0 0 C-1.36944102 2.94956528 -2.87830409 5.52468811 -5 8 C-5.66 8 -6.32 8 -7 8 C-4.18918919 0 -4.18918919 0 0 0 Z " fill="#D8F2FB" transform="translate(636,594)"/>
<path d="M0 0 C0 0.33 0 0.66 0 1 C-3.82320557 2.42258812 -6.91281305 3.24042276 -11 3 C-10 1 -10 1 -6.625 -0.1875 C-3 -1 -3 -1 0 0 Z " fill="#287AB1" transform="translate(2336,814)"/>
<path d="M0 0 C0.33 0.99 0.66 1.98 1 3 C-0.98 4.98 -2.96 6.96 -5 9 C-5.66 8.67 -6.32 8.34 -7 8 C-4.69 5.36 -2.38 2.72 0 0 Z " fill="#D5EFF8" transform="translate(688,798)"/>
<path d="M0 0 C0.66 0.33 1.32 0.66 2 1 C0.02 3.31 -1.96 5.62 -4 8 C-4.33 7.01 -4.66 6.02 -5 5 C-3.35 3.35 -1.7 1.7 0 0 Z " fill="#D7F0FA" transform="translate(685,832)"/>
<path d="M0 0 C0.33 0.66 0.66 1.32 1 2 C-0.65 3.98 -2.3 5.96 -4 8 C-4.66 7.34 -5.32 6.68 -6 6 C-4.02 4.02 -2.04 2.04 0 0 Z " fill="#CDE9F6" transform="translate(756,797)"/>
<path d="M0 0 C0.99 0.33 1.98 0.66 3 1 C-0.465 3.97 -0.465 3.97 -4 7 C-3.04065919 3.16263678 -2.76390737 2.40339772 0 0 Z " fill="#CDEAF7" transform="translate(622,703)"/>
<path d="M0 0 C3 1 3 1 4.25 2.8125 C5.11637742 5.33943414 4.88492145 6.52221994 4 9 C0 2.25 0 2.25 0 0 Z " fill="#2B79B0" transform="translate(760,825)"/>
<path d="M0 0 C0.66 0 1.32 0 2 0 C0.73058503 3.91402949 -0.51167694 5.79072873 -4 8 C-3.40312566 4.65750371 -2.26396123 2.53563658 0 0 Z " fill="#DDF5FC" transform="translate(2355,793)"/>
<path d="M0 0 C3.465 1.98 3.465 1.98 7 4 C6.34 5.32 5.68 6.64 5 8 C4.731875 7.38125 4.46375 6.7625 4.1875 6.125 C3.04443152 3.7004767 3.04443152 3.7004767 0 2 C0 1.34 0 0.68 0 0 Z " fill="#1D70AA" transform="translate(2039,705)"/>
<path d="M0 0 C1.39195915 4.17587745 -0.17676781 6.13474776 -2 10 C-2.66 9.67 -3.32 9.34 -4 9 C-2.68 6.03 -1.36 3.06 0 0 Z " fill="#2577B0" transform="translate(1795,691)"/>
<path d="M0 0 C0.33 0.99 0.66 1.98 1 3 C-0.65 4.32 -2.3 5.64 -4 7 C-4.66 6.67 -5.32 6.34 -6 6 C-4.02 4.02 -2.04 2.04 0 0 Z " fill="#1872AF" transform="translate(618,577)"/>
</svg>
