<?xml version="1.0" encoding="UTF-8"?>
<svg version="1.1" xmlns="http://www.w3.org/2000/svg" width="545" height="545">
<path d="M0 0 C179.85 0 359.7 0 545 0 C545 179.85 545 359.7 545 545 C365.15 545 185.3 545 0 545 C0 365.15 0 185.3 0 0 Z " fill="#FBFCFB" transform="translate(0,0)"/>
<path d="M0 0 C12.31901164 6.75867954 20.53404906 15.68027217 25.0078125 29.1015625 C25.70052488 40.27580811 26.01049196 51.05787856 19.24609375 60.58203125 C17.68261308 63.02771758 17.68261308 63.02771758 18.76464844 65.46948242 C19.95238897 67.98421744 21.2310172 70.34941704 22.66015625 72.734375 C23.18343506 73.61270996 23.70671387 74.49104492 24.24584961 75.39599609 C24.80667236 76.33008301 25.36749512 77.26416992 25.9453125 78.2265625 C27.13350552 80.22094145 28.3209945 82.21574 29.5078125 84.2109375 C30.10078125 85.20673828 30.69375 86.20253906 31.3046875 87.22851562 C33.71474222 91.29410105 36.08439566 95.38230312 38.4453125 99.4765625 C44.92855115 110.70684236 51.4624158 121.90741288 58.0078125 133.1015625 C58.47074707 133.89336914 58.93368164 134.68517578 59.41064453 135.50097656 C60.64984004 137.61873773 61.89121252 139.73521043 63.1328125 141.8515625 C63.51679199 142.50946777 63.90077148 143.16737305 64.29638672 143.84521484 C66.57995846 147.7402735 68.92722082 151.58762447 71.32421875 155.4140625 C71.88415527 156.31801758 72.4440918 157.22197266 73.02099609 158.15332031 C74.11450388 159.91556121 75.21983529 161.67053508 76.33837891 163.41699219 C77.07773682 164.61437012 77.07773682 164.61437012 77.83203125 165.8359375 C78.27635498 166.53944336 78.72067871 167.24294922 79.1784668 167.96777344 C80.28567157 170.81645454 80.0134515 172.23091515 79.0078125 175.1015625 C77.33374023 177.22973633 77.33374023 177.22973633 75.19140625 179.30859375 C74.42763672 180.05947266 73.66386719 180.81035156 72.87695312 181.58398438 C71.67329102 182.73737305 71.67329102 182.73737305 70.4453125 183.9140625 C69.63900391 184.70232422 68.83269531 185.49058594 68.00195312 186.30273438 C66.01261081 188.24499166 64.01453979 190.17729911 62.0078125 192.1015625 C58.73129688 189.0989143 56.63918134 186.0518577 54.46875 182.18359375 C53.98541199 181.32930031 53.98541199 181.32930031 53.49230957 180.45774841 C52.80563353 179.24244524 52.12188784 178.02548239 51.44085693 176.80700684 C50.00955436 174.24626741 48.56407299 171.69363268 47.11941528 169.14041138 C46.40112129 167.87054811 45.68356737 166.60026593 44.96676636 165.32955933 C42.32079077 160.64071156 39.62781271 155.98298168 36.8828125 151.3515625 C36.10278291 150.03260038 35.32283666 148.71358897 34.54296875 147.39453125 C34.14223145 146.71696777 33.74149414 146.0394043 33.32861328 145.34130859 C24.87626316 131.00824759 16.54785463 116.60212162 8.24536133 102.18188477 C7.66294678 101.17053467 7.08053223 100.15918457 6.48046875 99.1171875 C5.91473145 98.13298828 5.34899414 97.14878906 4.76611328 96.13476562 C3.52645996 93.99626897 2.27356272 91.86542274 1.01123047 89.74023438 C0.36943848 88.65806641 -0.27235352 87.57589844 -0.93359375 86.4609375 C-1.51955322 85.48092773 -2.1055127 84.50091797 -2.70922852 83.49121094 C-3.9921875 81.1015625 -3.9921875 81.1015625 -3.9921875 79.1015625 C-5.1059375 79.5965625 -5.1059375 79.5965625 -6.2421875 80.1015625 C-13.25415701 81.97142103 -20.91695408 81.67383659 -27.9921875 80.1015625 C-28.39812134 81.17954102 -28.39812134 81.17954102 -28.81225586 82.27929688 C-29.98738791 85.09008242 -31.34276428 87.62387784 -32.87109375 90.2578125 C-33.45375 91.26521484 -34.03640625 92.27261719 -34.63671875 93.31054688 C-35.26964844 94.39658203 -35.90257812 95.48261719 -36.5546875 96.6015625 C-37.22418062 97.75573046 -37.89344663 98.91003019 -38.5625 100.06445312 C-44.2235028 109.82166124 -49.93589491 119.54895978 -55.65039062 129.27490234 C-60.32566139 137.23574908 -64.95437696 145.22208297 -69.5546875 153.2265625 C-74.69265568 162.16492017 -79.90817888 171.05410217 -85.1796875 179.9140625 C-90.39226752 188.67725866 -95.54494129 197.46863199 -100.57299805 206.33911133 C-105.65092885 215.29726566 -110.83153709 224.18771179 -115.9921875 233.1015625 C-101.1421875 233.1015625 -86.2921875 233.1015625 -70.9921875 233.1015625 C-70.6621875 231.7815625 -70.3321875 230.4615625 -69.9921875 229.1015625 C-69.2107823 227.52800519 -68.37663522 225.98015604 -67.5078125 224.453125 C-66.99033447 223.54030762 -66.47285645 222.62749023 -65.93969727 221.68701172 C-65.37951904 220.71006348 -64.81934082 219.73311523 -64.2421875 218.7265625 C-63.67105225 217.7173877 -63.09991699 216.70821289 -62.51147461 215.66845703 C-59.48367557 210.34511772 -56.38620653 205.07774629 -53.16796875 199.8671875 C-52.56243164 198.8776709 -51.95689453 197.8881543 -51.33300781 196.86865234 C-50.16462559 194.96850739 -48.98076593 193.07777668 -47.78027344 191.19775391 C-47.25336914 190.33843262 -46.72646484 189.47911133 -46.18359375 188.59375 C-45.71123291 187.84464355 -45.23887207 187.09553711 -44.75219727 186.32373047 C-43.73037054 184.04057021 -43.73037054 184.04057021 -44.78833008 181.45507812 C-45.18560303 180.67841797 -45.58287598 179.90175781 -45.9921875 179.1015625 C-50.38675521 170.28034995 -51.92468863 161.04279105 -49.2265625 151.3515625 C-48.28686843 149.14402722 -47.24329153 147.14647047 -45.9921875 145.1015625 C-45.0640625 143.52375 -45.0640625 143.52375 -44.1171875 141.9140625 C-39.64944962 136.00088001 -36.40267797 132.58366059 -28.9921875 131.1015625 C-28.9921875 130.4415625 -28.9921875 129.7815625 -28.9921875 129.1015625 C-18.80318108 125.32054522 -9.60893133 126.44878158 0.265625 130.6875 C3.60420986 132.40910644 5.67618884 134.15274435 8.0078125 137.1015625 C8.86632812 138.01615234 8.86632812 138.01615234 9.7421875 138.94921875 C16.87881414 146.60192377 19.33929858 154.04053949 19.23046875 164.47265625 C18.78277517 169.75858223 17.09479325 174.39344989 14.2578125 178.8515625 C12.61408699 181.81026841 13.09758805 182.88298786 14.0078125 186.1015625 C15.30314842 188.77625449 15.30314842 188.77625449 16.95703125 191.48828125 C17.55837891 192.50986328 18.15972656 193.53144531 18.77929688 194.58398438 C19.41158203 195.64166016 20.04386719 196.69933594 20.6953125 197.7890625 C21.30826172 198.82740234 21.92121094 199.86574219 22.55273438 200.93554688 C23.16052734 201.96357422 23.76832031 202.99160156 24.39453125 204.05078125 C24.99313965 205.06446777 25.59174805 206.0781543 26.20849609 207.12255859 C27.3962722 209.08907747 28.61766195 211.03572864 29.87353516 212.95947266 C30.43991699 213.83780762 31.00629883 214.71614258 31.58984375 215.62109375 C32.10393799 216.39171143 32.61803223 217.1623291 33.14770508 217.95629883 C34.0078125 220.1015625 34.0078125 220.1015625 33.24707031 222.26977539 C31.92292513 224.22703727 30.526674 225.96949417 28.9453125 227.7265625 C28.02492188 228.75136719 28.02492188 228.75136719 27.0859375 229.796875 C26.40015625 230.55742187 25.714375 231.31796875 25.0078125 232.1015625 C24.21890625 233.00648438 23.43 233.91140625 22.6171875 234.84375 C21.81796875 235.75382813 21.01875 236.66390625 20.1953125 237.6015625 C19.44636719 238.4575 18.69742187 239.3134375 17.92578125 240.1953125 C16.0078125 242.1015625 16.0078125 242.1015625 14.0078125 242.1015625 C13.64131592 241.44373779 13.27481934 240.78591309 12.8972168 240.1081543 C11.16483938 237.0008999 9.43040488 233.8948017 7.6953125 230.7890625 C7.06608887 229.66234131 6.43686523 228.53562012 5.78857422 227.37475586 C1.35271632 219.4515002 -3.15559058 211.57512672 -7.7902832 203.76635742 C-10.9921875 198.31613966 -10.9921875 198.31613966 -10.9921875 196.1015625 C-14.30808269 195.67553233 -16.87106037 195.85717145 -19.9921875 197.1015625 C-23.24921257 200.82671539 -25.37084948 205.16059137 -27.6171875 209.5390625 C-28.29641594 210.80297777 -28.97916839 212.06500504 -29.6652832 213.32519531 C-31.0828107 215.93444619 -32.48534652 218.55095733 -33.87841797 221.17333984 C-37.16180137 227.31856687 -40.67904405 233.32848628 -44.1796875 239.3515625 C-44.79086426 240.41431396 -45.40204102 241.47706543 -46.03173828 242.57202148 C-46.61036621 243.57692627 -47.18899414 244.58183105 -47.78515625 245.6171875 C-48.2855542 246.48633789 -48.78595215 247.35548828 -49.30151367 248.25097656 C-49.85943604 249.19166992 -50.4173584 250.13236328 -50.9921875 251.1015625 C-51.2331868 251.80130188 -51.4741861 252.50104126 -51.7224884 253.22198486 C-52.84735981 255.89241486 -53.70301044 257.29555521 -55.9921875 259.1015625 C-60.74982258 259.88641389 -65.31178916 259.61131674 -70.10668373 259.27677155 C-72.57793047 259.1148974 -75.04296237 259.02149938 -77.51835632 258.94891357 C-84.549117 258.73949507 -91.57106333 258.48153841 -98.58911133 258.00146484 C-116.82243094 256.02113909 -116.82243094 256.02113909 -133.63606262 261.30561829 C-140.12717455 267.58953931 -143.41726032 276.22534541 -146.54109192 284.51693726 C-148.81864666 290.14315535 -151.94792032 295.19264173 -155.1171875 300.3515625 C-156.2709669 302.3153404 -157.4212051 304.28120726 -158.56640625 306.25 C-159.13149902 307.21518555 -159.6965918 308.18037109 -160.27880859 309.17480469 C-168.21713479 322.73488654 -176.12857667 336.31051167 -183.9921875 349.9140625 C-184.60312256 350.96899902 -185.21405762 352.02393555 -185.84350586 353.11083984 C-186.4288208 354.12484863 -187.01413574 355.13885742 -187.6171875 356.18359375 C-188.37902344 357.50194214 -188.37902344 357.50194214 -189.15625 358.84692383 C-191.82024959 363.56950076 -194.39578313 368.34148781 -196.9921875 373.1015625 C-182.4721875 373.1015625 -167.9521875 373.1015625 -152.9921875 373.1015625 C-152.6621875 371.7815625 -152.3321875 370.4615625 -151.9921875 369.1015625 C-151.2107823 367.52800519 -150.37663522 365.98015604 -149.5078125 364.453125 C-148.99162354 363.54183838 -148.47543457 362.63055176 -147.94360352 361.69165039 C-147.38213623 360.71317139 -146.82066895 359.73469238 -146.2421875 358.7265625 C-145.36808228 357.19213501 -145.36808228 357.19213501 -144.47631836 355.62670898 C-139.51228493 346.9418192 -134.43431711 338.32605345 -129.32421875 329.7265625 C-125.20475631 322.78852049 -121.15001954 315.81289277 -117.09985352 308.83422852 C-116.03503615 307.00326792 -114.94649825 305.18585552 -113.83244324 303.38442993 C-112.46443991 300.94402262 -111.49356539 298.86968009 -110.54119873 296.28816223 C-108.74366081 291.90457559 -106.78832558 288.06187875 -102.9921875 285.1015625 C-95.32434752 282.37168581 -86.57550236 283.44379892 -78.5859375 283.734375 C-76.17663413 283.76279813 -73.76722479 283.78325275 -71.35778809 283.79611206 C-65.02652582 283.84528811 -58.69997417 283.97629415 -52.37054443 284.13262939 C-42.24227086 284.37793435 -32.1142928 284.53786012 -21.98347473 284.62356186 C-18.45334611 284.67113503 -14.92839239 284.77753353 -11.39978027 284.88894653 C-0.6176802 285.42222675 -0.6176802 285.42222675 9.3885498 282.2008667 C11.68063465 279.94572112 13.31353055 277.82024547 15.0078125 275.1015625 C16.18538753 273.7296701 17.3805623 272.372453 18.6015625 271.0390625 C19.16230469 270.38679688 19.72304688 269.73453125 20.30078125 269.0625 C23.27115513 265.65030849 26.39586144 262.38420148 29.5078125 259.1015625 C30.92201921 257.60430287 32.33607822 256.10690371 33.75 254.609375 C34.45995117 253.85817383 35.16990234 253.10697266 35.90136719 252.33300781 C39.15311784 248.88829282 42.39370771 245.43316521 45.6328125 241.9765625 C46.250354 241.317771 46.86789551 240.65897949 47.50415039 239.98022461 C51.65763046 235.54748232 55.80279269 231.10704557 59.9453125 226.6640625 C64.93098718 221.31717861 69.93298008 215.98596238 74.9453125 210.6640625 C82.8873301 202.2308114 82.8873301 202.2308114 90.8203125 193.7890625 C91.44107666 193.12777344 92.06184082 192.46648437 92.70141602 191.78515625 C96.4605306 187.77329864 100.18318952 183.73075847 103.8828125 179.6640625 C108.4484812 174.66030865 113.16499307 169.83676372 118.0078125 165.1015625 C116.6639912 162.07518978 115.2091351 160.09606267 112.77734375 157.859375 C111.81924805 156.97185547 111.81924805 156.97185547 110.84179688 156.06640625 C110.17470703 155.45925781 109.50761719 154.85210937 108.8203125 154.2265625 C108.17255859 153.62714844 107.52480469 153.02773437 106.85742188 152.41015625 C103.08654219 148.93687846 99.24775456 145.58701283 95.2644043 142.35888672 C94.0078125 141.1015625 94.0078125 141.1015625 94.0078125 139.1015625 C103.09548563 135.72742644 112.10931926 132.66801564 121.546875 130.43066406 C124.93037335 129.6269147 128.229393 128.76266941 131.5078125 127.6015625 C136.29168888 125.90880624 141.2118131 124.77772969 146.13793945 123.58642578 C149.72958626 122.70740748 153.22322915 121.7473065 156.6953125 120.4765625 C161.34729437 118.81577819 166.10475596 118.31196002 170.98046875 117.640625 C174.70961126 116.97659704 177.59471942 115.69918054 181.0078125 114.1015625 C182.3278125 114.1015625 183.6478125 114.1015625 185.0078125 114.1015625 C183.68484139 123.68993301 181.8209531 133.09807556 179.78036499 142.55404663 C176.66111057 157.01468644 173.69863778 171.4955505 170.99902344 186.04052734 C169.65637271 193.16955055 168.04461509 200.1378398 166.0078125 207.1015625 C159.51225669 202.59275083 154.03004816 197.36571846 148.5078125 191.7265625 C147.68539063 190.89511719 146.86296875 190.06367188 146.015625 189.20703125 C144.00833699 187.17640268 142.00590716 185.14123083 140.0078125 183.1015625 C132.45393473 186.66968618 127.1143701 193.88490756 121.75390625 200.13671875 C119.28299861 202.91718082 116.6261431 205.49274468 113.9765625 208.1015625 C112.06794795 210.04047252 110.28070698 212.03855801 108.5078125 214.1015625 C106.11104662 216.89052643 103.62821859 219.52147035 101.0078125 222.1015625 C98.40799067 224.66146384 95.94512852 227.2693579 93.5703125 230.0390625 C91.00115979 233.02957966 88.31463994 235.83272934 85.5078125 238.6015625 C82.72160109 241.3501224 80.05472858 244.13016041 77.5078125 247.1015625 C74.32776594 250.81161682 70.92019448 254.23134117 67.4140625 257.6328125 C64.78744112 260.32765781 62.33893888 263.14122798 59.87304688 265.98242188 C56.83477178 269.43428415 53.67131945 272.76478299 50.5078125 276.1015625 C49.1026668 277.58835477 47.69772402 279.07533884 46.29296875 280.5625 C45.58414551 281.31241211 44.87532227 282.06232422 44.14501953 282.83496094 C42.05040345 285.05639294 39.96311577 287.28442963 37.87890625 289.515625 C37.21761719 290.22332031 36.55632812 290.93101562 35.875 291.66015625 C34.63064106 292.99267827 33.38709001 294.32595542 32.14453125 295.66015625 C28.7051254 299.3397008 25.20037906 302.92842196 21.58813477 306.43896484 C19.90473995 308.03613444 19.90473995 308.03613444 19.01687622 310.1991272 C16.61918605 312.46956311 15.97337611 312.3881511 12.76850891 312.43212891 C10.93909965 312.37594087 9.11028986 312.29784805 7.2824707 312.203125 C5.21146669 312.13130678 3.14044634 312.05995872 1.06941223 311.98901367 C-0.58156999 311.92210831 -0.58156999 311.92210831 -2.26590538 311.85385132 C-8.10842348 311.63674811 -13.95345836 311.54952927 -19.79882812 311.44140625 C-27.23353612 311.29821611 -34.66033177 311.11713417 -42.08911133 310.78173828 C-68.08276757 308.1099063 -68.08276757 308.1099063 -91.73855591 315.73724365 C-97.62784461 321.79922733 -100.33320178 329.4802457 -102.74153137 337.45059204 C-104.83053367 343.54889956 -108.18448978 348.75295528 -111.5546875 354.2265625 C-112.78585843 356.3455352 -114.01185072 358.46753335 -115.23046875 360.59375 C-117.52046452 364.55727396 -119.81294764 368.5193434 -122.10777283 372.48007202 C-123.48805303 374.8629461 -124.86701521 377.24658151 -126.24581909 379.63031006 C-127.21537748 381.30524749 -128.1868849 382.97905623 -129.15844727 384.65283203 C-129.74811279 385.67231934 -130.33777832 386.69180664 -130.9453125 387.7421875 C-131.46254883 388.63454102 -131.97978516 389.52689453 -132.51269531 390.44628906 C-134.09388995 393.28408986 -135.53937713 396.19594176 -136.9921875 399.1015625 C-171.9721875 399.1015625 -206.9521875 399.1015625 -242.9921875 399.1015625 C-241.97676944 395.03989025 -240.36663957 391.93158548 -238.3046875 388.3515625 C-237.91240967 387.66255859 -237.52013184 386.97355469 -237.1159668 386.26367188 C-231.7540334 376.87952141 -226.28252456 367.55787794 -220.82275391 358.23046875 C-217.87411223 353.19048587 -214.9334004 348.14588299 -211.9921875 343.1015625 C-208.50602666 337.12375909 -205.01894524 331.14650254 -201.52734375 325.171875 C-194.84835271 313.73936781 -188.20671376 302.28620855 -181.59790039 290.81298828 C-177.41891127 283.56234213 -173.21479927 276.32688071 -168.9921875 269.1015625 C-164.15542308 260.82379152 -159.34356775 252.53213117 -154.5546875 244.2265625 C-153.93134521 243.14560303 -153.30800293 242.06464355 -152.66577148 240.95092773 C-149.53101934 235.51253113 -146.40018214 230.07191041 -143.2734375 224.62890625 C-136.28787731 212.47946717 -129.21237717 200.3899036 -122.04321289 188.34790039 C-117.27242519 180.31377141 -112.6081337 172.22507475 -107.9921875 164.1015625 C-102.05685252 153.65713031 -95.99891071 143.29544547 -89.85595703 132.97143555 C-83.75734763 122.72148941 -77.74250831 112.42415513 -71.74511719 102.11474609 C-68.66327785 96.81724456 -65.57810531 91.52168895 -62.4921875 86.2265625 C-61.64696533 84.77407104 -61.64696533 84.77407104 -60.78466797 83.29223633 C-60.24471191 82.36564209 -59.70475586 81.43904785 -59.1484375 80.484375 C-58.37306641 79.14101074 -58.37306641 79.14101074 -57.58203125 77.77050781 C-56.49242509 75.94133483 -55.35670702 74.13907722 -54.18359375 72.36230469 C-53.61511719 71.48993164 -53.04664063 70.61755859 -52.4609375 69.71875 C-51.67879883 68.56415283 -51.67879883 68.56415283 -50.88085938 67.38623047 C-49.709916 65.06548922 -49.709916 65.06548922 -50.77319336 62.45996094 C-51.17546143 61.68168945 -51.57772949 60.90341797 -51.9921875 60.1015625 C-52.33378906 59.32554687 -52.67539063 58.54953125 -53.02734375 57.75 C-53.71463567 56.22907262 -54.40213713 54.70823991 -55.08984375 53.1875 C-58.38950045 45.55972217 -58.31893061 34.16828266 -55.8671875 26.1640625 C-55.0234375 24.140625 -55.0234375 24.140625 -53.9921875 22.1015625 C-53.59 21.28429687 -53.1878125 20.46703125 -52.7734375 19.625 C-47.51154147 9.94895786 -40.26018137 3.88647995 -29.9921875 0.1015625 C-29.26 -0.25550781 -28.5278125 -0.61257812 -27.7734375 -0.98046875 C-19.82103676 -3.60520776 -7.71704484 -3.23813254 0 0 Z " fill="#0471BB" transform="translate(295.9921875,73.8984375)"/>
<path d="M0 0 C0.66 0 1.32 0 2 0 C3.52352827 2.64078234 5.047052 5.28156731 6.57055664 7.92236328 C7.91732423 10.25671642 9.26415607 12.59103235 10.61108398 14.92529297 C14.02377298 20.83978489 17.43539406 26.75488441 20.84375 32.671875 C27.53682672 44.28821187 34.25552373 55.88883749 41.01855469 67.46459961 C44.46465812 73.36378713 47.89618663 79.27101937 51.3125 85.1875 C56.37365896 93.94903461 61.49428047 102.67546919 66.6161499 111.40158081 C71.51410055 119.74695073 76.39506056 128.1015818 81.22583008 136.48608398 C83.42224665 140.29391617 85.64010585 144.08712646 87.890625 147.86328125 C88.35992432 148.65250977 88.82922363 149.44173828 89.31274414 150.25488281 C90.2065573 151.75520637 91.10398877 153.25338228 92.00561523 154.74902344 C95 159.77865888 95 159.77865888 95 162 C60.02 162 25.04 162 -11 162 C-13.97 156.555 -13.97 156.555 -17 151 C-18.12765225 148.99877034 -19.26250383 147.00154631 -20.41015625 145.01171875 C-21.00054687 143.98755859 -21.5909375 142.96339844 -22.19921875 141.90820312 C-22.81410156 140.84537109 -23.42898438 139.78253906 -24.0625 138.6875 C-24.71734375 137.55376953 -25.3721875 136.42003906 -26.046875 135.25195312 C-30.66850169 127.25968214 -35.34989426 119.30375949 -40.06445312 111.3659668 C-43.07742118 106.28366781 -46.0577528 101.18381328 -49.00390625 96.0625 C-49.34235565 95.47428467 -49.68080505 94.88606934 -50.0295105 94.2800293 C-51.68201519 91.4061081 -53.33106402 88.530287 -54.9765625 85.65234375 C-55.57339844 84.61207031 -56.17023438 83.57179688 -56.78515625 82.5 C-57.34090332 81.530625 -57.89665039 80.56125 -58.46923828 79.5625 C-59.72940263 77.45298086 -61.04904917 75.48140465 -62.49609375 73.5 C-64 71 -64 71 -63.78491211 69.05078125 C-62.86639625 66.65092643 -61.79347535 65.4630924 -59.9453125 63.6875 C-59.33042969 63.08679688 -58.71554687 62.48609375 -58.08203125 61.8671875 C-57.11330078 60.94292969 -57.11330078 60.94292969 -56.125 60 C-54.85452365 58.77315618 -53.58622333 57.54405417 -52.3203125 56.3125 C-51.7315332 55.74015625 -51.14275391 55.1678125 -50.53613281 54.578125 C-48.86596803 52.93076629 -48.86596803 52.93076629 -47.1796875 50.5625 C-46.79039062 50.046875 -46.40109375 49.53125 -46 49 C-45.34 49 -44.68 49 -44 49 C-43.42894531 50.04414063 -42.85789062 51.08828125 -42.26953125 52.1640625 C-36.51348939 62.63464579 -30.52699584 72.95005812 -24.42578125 83.22265625 C-18.55339483 93.11112778 -12.77146861 103.05238843 -7 113 C-6.41138184 114.01271973 -5.82276367 115.02543945 -5.21630859 116.06884766 C-3.5141809 119.00136111 -1.81849354 121.9374938 -0.125 124.875 C0.65242554 126.21316772 0.65242554 126.21316772 1.44555664 127.57836914 C1.91469482 128.3955542 2.38383301 129.21273926 2.8671875 130.0546875 C3.28081543 130.77124512 3.69444336 131.48780273 4.12060547 132.22607422 C5 134 5 134 5 136 C19.52 136 34.04 136 49 136 C43.22881168 125.61186102 37.48331122 115.30153259 31.375 105.125 C25.77799857 95.74124181 20.27747583 86.30956861 14.875 76.8125 C9.83438694 67.95397102 4.76324724 59.11488985 -0.375 50.3125 C-0.94436279 49.33345703 -1.51372559 48.35441406 -2.1003418 47.34570312 C-4.72944491 42.83538851 -7.38636553 38.34862634 -10.12890625 33.90625 C-10.60602051 33.12467529 -11.08313477 32.34310059 -11.57470703 31.5378418 C-12.45249149 30.10448361 -13.34195946 28.67818255 -14.24560547 27.26098633 C-17.05080702 22.65886905 -17.05080702 22.65886905 -16.80883789 19.52099609 C-15.88216438 16.63272845 -14.83616073 15.38416772 -12.65625 13.30078125 C-11.65271484 12.32334961 -11.65271484 12.32334961 -10.62890625 11.32617188 C-9.92636719 10.66166016 -9.22382813 9.99714844 -8.5 9.3125 C-7.11261581 7.97730183 -5.72710337 6.64015517 -4.34375 5.30078125 C-3.72693359 4.71466064 -3.11011719 4.12854004 -2.47460938 3.5246582 C-0.89900763 2.04831132 -0.89900763 2.04831132 0 0 Z " fill="#0571BA" transform="translate(413,311)"/>
<path d="M0 0 C4.76236288 3.13094119 8.62329418 5.97059214 10.2421875 11.63671875 C10.95627248 17.96147146 9.85930601 22.36907043 6.2421875 27.63671875 C3.7421875 30.01171875 3.7421875 30.01171875 1.2421875 31.63671875 C0.6440625 32.04921875 0.0459375 32.46171875 -0.5703125 32.88671875 C-6.16662902 34.80545584 -12.42896901 33.90641135 -17.7578125 31.63671875 C-21.35077972 28.27842731 -24.54057425 24.85565234 -25.03125 19.84375 C-25.36838024 8.57581996 -25.36838024 8.57581996 -21.296875 4.00390625 C-15.02993037 -1.56317654 -7.93385002 -3.92197402 0 0 Z " fill="#F4FAFB" transform="translate(287.7578125,96.36328125)"/>
<path d="M0 0 C3.49996383 2.04164557 5.80555258 4.09089936 7 8 C7.42543885 13.36052948 7.47662684 16.65421645 4 21 C0.18791358 24.40689719 -2.62894945 24.50889847 -7.58984375 24.35546875 C-11.8257677 23.73072146 -13.83982213 21.54690383 -16.3125 18.25 C-17.36660859 14.80019007 -17.56469439 11.53784435 -17 8 C-12.84111436 0.25586811 -8.34832437 -1.09355048 0 0 Z " fill="#F2F9FA" transform="translate(285,224)"/>
<path d="M0 0 C0.66 0.99 1.32 1.98 2 3 C1.01 4.485 1.01 4.485 0 6 C33.66 6 67.32 6 102 6 C102 5.34 102 4.68 102 4 C102.99 4.495 102.99 4.495 104 5 C103.67 5.99 103.34 6.98 103 8 C68.02 8 33.04 8 -3 8 C-2.22404875 4.89619499 -1.4731994 2.74997221 0 0 Z " fill="#3382BA" transform="translate(56,465)"/>
<path d="M0 0 C36.3 0 72.6 0 110 0 C110 0.33 110 0.66 110 1 C109.17835672 1.00496522 109.17835672 1.00496522 108.34011459 1.01003075 C95.01133398 1.09125407 81.68266845 1.18346955 68.35404587 1.28752708 C61.90841584 1.33751576 55.46280241 1.38384569 49.01708984 1.421875 C42.79896922 1.45869513 36.58098659 1.50504638 30.3629837 1.55806351 C27.98830837 1.57662483 25.61360343 1.59172632 23.23888397 1.60334396 C19.91790067 1.62017646 16.59723462 1.64920476 13.27636719 1.68115234 C11.79714531 1.68439262 11.79714531 1.68439262 10.28804016 1.68769836 C8.92932045 1.70444359 8.92932045 1.70444359 7.54315186 1.7215271 C6.75778423 1.72705786 5.97241661 1.73258862 5.16324997 1.73828697 C2.74495446 2.03085577 1.10159685 2.79664586 -1 4 C-0.67 2.68 -0.34 1.36 0 0 Z " fill="#0E6BAA" transform="translate(192,360)"/>
<path d="M0 0 C0.66 0 1.32 0 2 0 C0.53447054 3.8329232 -1.14624378 7.29248755 -3 11 C-17.85 11 -32.7 11 -48 11 C-46 6 -46 6 -44 4 C-44 5.32 -44 6.64 -44 8 C-24.2 8.495 -24.2 8.495 -4 9 C-4 8.01 -4 7.02 -4 6 C-3.34 6 -2.68 6 -2 6 C-1.855625 5.38125 -1.71125 4.7625 -1.5625 4.125 C-1 2 -1 2 0 0 Z " fill="#BDDFEE" transform="translate(228,296)"/>
<path d="M0 0 C0.33 0.66 0.66 1.32 1 2 C14.53 2 28.06 2 42 2 C42 1.34 42 0.68 42 0 C42.66 0.33 43.32 0.66 44 1 C43.67 1.99 43.34 2.98 43 4 C28.48 4 13.96 4 -1 4 C-0.67 2.68 -0.34 1.36 0 0 Z " fill="#B2D7EA" transform="translate(100,443)"/>
<path d="M0 0 C0.66 0 1.32 0 2 0 C2 4 2 4 0.49609375 5.67578125 C-0.18324219 6.21589844 -0.86257813 6.75601562 -1.5625 7.3125 C-5.6256979 10.65866298 -9.33215731 14.22899923 -13 18 C-13.99 17.67 -14.98 17.34 -16 17 C-15.09636719 16.10796875 -14.19273437 15.2159375 -13.26171875 14.296875 C-12.07017921 13.11471766 -10.87878034 11.93241853 -9.6875 10.75 C-9.09259766 10.16347656 -8.49769531 9.57695312 -7.88476562 8.97265625 C-5.48378724 6.58509116 -3.22517904 4.3041634 -1.20703125 1.578125 C-0.80871094 1.05734375 -0.41039062 0.5365625 0 0 Z " fill="#257AB5" transform="translate(367,360)"/>
<path d="M0 0 C2.28115126 0.01796182 4.3707457 0.19758664 6.60546875 0.64453125 C6.60546875 1.30453125 6.60546875 1.96453125 6.60546875 2.64453125 C3.63546875 2.64453125 0.66546875 2.64453125 -2.39453125 2.64453125 C-2.72453125 3.96453125 -3.05453125 5.28453125 -3.39453125 6.64453125 C-4.20546119 8.2504384 -5.06198702 9.83394131 -5.95703125 11.39453125 C-6.41207031 12.19375 -6.86710937 12.99296875 -7.3359375 13.81640625 C-7.68527344 14.4196875 -8.03460938 15.02296875 -8.39453125 15.64453125 C-9.05453125 15.64453125 -9.71453125 15.64453125 -10.39453125 15.64453125 C-4.83856551 1.30238713 -4.83856551 1.30238713 0 0 Z " fill="#C6E5F2" transform="translate(278.39453125,269.35546875)"/>
<path d="M0 0 C0.99 0.33 1.98 0.66 3 1 C-2.33333333 6.33333333 -7.66666667 11.66666667 -13 17 C-13.66 16.67 -14.32 16.34 -15 16 C-13.25113898 14.08228343 -11.50095499 12.16580317 -9.75 10.25 C-9.25886719 9.71117187 -8.76773437 9.17234375 -8.26171875 8.6171875 C-5.57126836 5.6756284 -2.8468489 2.7926232 0 0 Z " fill="#CFEAF5" transform="translate(434,256)"/>
<path d="M0 0 C0.33 0 0.66 0 1 0 C0.52715326 8.1362249 -0.51073401 16.21062221 -3 24 C-3.66 24.33 -4.32 24.66 -5 25 C-4.855625 24.01 -4.71125 23.02 -4.5625 22 C-4.15860169 19.21253281 -3.8182336 16.42343513 -3.5 13.625 C-3 10 -3 10 -2 9 C-1.60851239 7.48834346 -1.26027543 5.96530368 -0.9375 4.4375 C-0.76089844 3.61121094 -0.58429688 2.78492188 -0.40234375 1.93359375 C-0.26957031 1.29550781 -0.13679688 0.65742188 0 0 Z " fill="#2176B0" transform="translate(469,239)"/>
<path d="M0 0 C0.33 0.99 0.66 1.98 1 3 C-0.74095679 4.82200133 -2.49177132 6.63229575 -4.25 8.4375 C-4.98669922 9.2119043 -4.98669922 9.2119043 -5.73828125 10.00195312 C-10.30164195 14.65658104 -10.30164195 14.65658104 -14 15 C-9.59156563 9.70987876 -4.92440206 4.81191572 0 0 Z " fill="#D1EBF4" transform="translate(329,368)"/>
<path d="M0 0 C0.33 0.99 0.66 1.98 1 3 C-2.3 6.63 -5.6 10.26 -9 14 C-9.99 13.67 -10.98 13.34 -12 13 C-11.46890625 12.48050781 -10.9378125 11.96101563 -10.390625 11.42578125 C-6.68949647 7.77192991 -3.12841559 4.17122079 0 0 Z " fill="#2377B2" transform="translate(388,266)"/>
<path d="M0 0 C1 3 1 3 -0.14453125 5.59375 C-0.69496094 6.5528125 -1.24539062 7.511875 -1.8125 8.5 C-2.62654297 9.93859375 -2.62654297 9.93859375 -3.45703125 11.40625 C-4.58543856 13.30311698 -5.7757065 15.16355974 -7 17 C-7.66 17 -8.32 17 -9 17 C-7.51481201 12.95698825 -5.57122002 9.38853744 -3.375 5.6875 C-2.74335938 4.61886719 -2.11171875 3.55023438 -1.4609375 2.44921875 C-0.97882813 1.64097656 -0.49671875 0.83273438 0 0 Z " fill="#D2EEF7" transform="translate(225,228)"/>
<path d="M0 0 C1.28583984 -0.01160156 1.28583984 -0.01160156 2.59765625 -0.0234375 C5.34062296 0.44364531 6.21849347 1.24455912 7.9375 3.375 C6.9475 3.87 6.9475 3.87 5.9375 4.375 C5.2775 4.045 4.6175 3.715 3.9375 3.375 C2.29304606 3.30448311 0.64582146 3.29074906 -1 3.3125 C-2.31291016 3.32603516 -2.31291016 3.32603516 -3.65234375 3.33984375 C-4.44769531 3.35144531 -5.24304688 3.36304688 -6.0625 3.375 C-7.0525 3.375 -8.0425 3.375 -9.0625 3.375 C-6.00006084 0.68914849 -4.06414341 -0.03677958 0 0 Z " fill="#C3E2F1" transform="translate(280.0625,223.625)"/>
<path d="M0 0 C0.67578125 1.671875 0.67578125 1.671875 1 4 C-0.14453125 6.578125 -0.14453125 6.578125 -1.8125 9.25 C-2.35519531 10.14203125 -2.89789063 11.0340625 -3.45703125 11.953125 C-3.96621094 12.62859375 -4.47539062 13.3040625 -5 14 C-5.66 14 -6.32 14 -7 14 C-5.23570801 9.02790438 -2.6060834 4.56561939 0 0 Z " fill="#D1EDF7" transform="translate(163,334)"/>
<path d="M0 0 C0.67578125 1.671875 0.67578125 1.671875 1 4 C-0.14453125 6.578125 -0.14453125 6.578125 -1.8125 9.25 C-2.35519531 10.14203125 -2.89789063 11.0340625 -3.45703125 11.953125 C-3.96621094 12.62859375 -4.47539062 13.3040625 -5 14 C-5.66 14 -6.32 14 -7 14 C-5.23570801 9.02790438 -2.6060834 4.56561939 0 0 Z " fill="#D0ECF6" transform="translate(169,453)"/>
<path d="M0 0 C0.67578125 1.671875 0.67578125 1.671875 1 4 C-0.14453125 6.578125 -0.14453125 6.578125 -1.8125 9.25 C-2.35519531 10.14203125 -2.89789063 11.0340625 -3.45703125 11.953125 C-3.96621094 12.62859375 -4.47539062 13.3040625 -5 14 C-5.66 14 -6.32 14 -7 14 C-5.23570801 9.02790438 -2.6060834 4.56561939 0 0 Z " fill="#D3EEF7" transform="translate(267,285)"/>
<path d="M0 0 C0.66 0.33 1.32 0.66 2 1 C-0.31 3.97 -2.62 6.94 -5 10 C-5.66 9.67 -6.32 9.34 -7 9 C-5.44499019 5.18315774 -2.96404505 2.80804268 0 0 Z " fill="#D0EAF5" transform="translate(271,97)"/>
<path d="M0 0 C0.33 0.66 0.66 1.32 1 2 C0.04882866 3.1725131 -0.91117009 4.33787015 -1.875 5.5 C-2.40867187 6.1496875 -2.94234375 6.799375 -3.4921875 7.46875 C-4.23855469 8.22671875 -4.23855469 8.22671875 -5 9 C-5.66 9 -6.32 9 -7 9 C-7 9.66 -7 10.32 -7 11 C-7.66 10.67 -8.32 10.34 -9 10 C-7.8758824 8.70756532 -6.75067408 7.41607925 -5.625 6.125 C-4.99851562 5.40570313 -4.37203125 4.68640625 -3.7265625 3.9453125 C-2.52573166 2.5923402 -1.2791655 1.2791655 0 0 Z " fill="#CFE9F4" transform="translate(322,304)"/>
<path d="M0 0 C0.33 0.99 0.66 1.98 1 3 C-1.64 5.31 -4.28 7.62 -7 10 C-7.66 9.67 -8.32 9.34 -9 9 C-6.03 6.03 -3.06 3.06 0 0 Z " fill="#2579B3" transform="translate(411,314)"/>
<path d="M0 0 C-5.1468192 3.16727335 -9.158256 3.35050464 -15 3 C-12.74829688 0.74829688 -11.67012422 0.48526 -8.625 -0.1875 C-7.85414063 -0.36667969 -7.08328125 -0.54585937 -6.2890625 -0.73046875 C-3.88917728 -1.01304909 -2.28329465 -0.73503321 0 0 Z " fill="#3E8BBF" transform="translate(445,199)"/>
<path d="M0 0 C0.33 0.99 0.66 1.98 1 3 C-0.20428246 4.52976421 -1.41813052 6.05516067 -2.71875 7.50390625 C-4.17619409 9.20573883 -5.12849368 10.94007598 -6 13 C-6.33 12.01 -6.66 11.02 -7 10 C-5.8203125 7.7734375 -5.8203125 7.7734375 -4.125 5.375 C-3.57070312 4.57835937 -3.01640625 3.78171875 -2.4453125 2.9609375 C-1 1 -1 1 0 0 Z " fill="#2B7DB5" transform="translate(255,212)"/>
<path d="M0 0 C0.33 0.99 0.66 1.98 1 3 C-1.31 5.31 -3.62 7.62 -6 10 C-6.66 9.67 -7.32 9.34 -8 9 C-5.36 6.03 -2.72 3.06 0 0 Z " fill="#CAE6F3" transform="translate(365,329)"/>
<path d="M0 0 C0.33 0.99 0.66 1.98 1 3 C-1.31 5.31 -3.62 7.62 -6 10 C-6.66 9.67 -7.32 9.34 -8 9 C-5.36 6.03 -2.72 3.06 0 0 Z " fill="#D1EBF5" transform="translate(397,295)"/>
<path d="M0 0 C1.24142712 4.96570849 0.37261666 7.15547062 -1 12 C-2.98 10.68 -4.96 9.36 -7 8 C-6.34 7.67 -5.68 7.34 -5 7 C-4.01 7.33 -3.02 7.66 -2 8 C-1.34 5.36 -0.68 2.72 0 0 Z " fill="#2876AC" transform="translate(463,269)"/>
<path d="M0 0 C0.66 0.99 1.32 1.98 2 3 C1.01 4.485 1.01 4.485 0 6 C2.97 6 5.94 6 9 6 C9 6.33 9 6.66 9 7 C5.37 7 1.74 7 -2 7 C-1 2 -1 2 0 0 Z " fill="#156FAE" transform="translate(56,465)"/>
<path d="M0 0 C0.75 1.625 0.75 1.625 1 4 C-0.8125 7.25 -0.8125 7.25 -3 10 C-3.66 10 -4.32 10 -5 10 C-3.66511872 6.40608886 -2.03977277 3.24509304 0 0 Z " fill="#D0ECF6" transform="translate(201,398)"/>
<path d="M0 0 C0.6875 1.75 0.6875 1.75 1 4 C-0.3125 6 -0.3125 6 -2 8 C-2.69580267 9.31836295 -3.37224433 10.64791086 -4 12 C-4.66 12 -5.32 12 -6 12 C-4.43358249 7.69235185 -2.31663844 3.93828536 0 0 Z " fill="#D1EDF7" transform="translate(127,396)"/>
<path d="M0 0 C0.33 0.66 0.66 1.32 1 2 C-2.32307692 6.8 -2.32307692 6.8 -5.75 7.8125 C-6.4925 7.874375 -7.235 7.93625 -8 8 C-6.81775332 5.63550664 -5.45903319 4.56573685 -3.4375 2.875 C-2.79683594 2.33617187 -2.15617187 1.79734375 -1.49609375 1.2421875 C-0.75552734 0.62730469 -0.75552734 0.62730469 0 0 Z " fill="#CBE7F1" transform="translate(364,259)"/>
<path d="M0 0 C-0.33 0.99 -0.66 1.98 -1 3 C-1 2.34 -1 1.68 -1 1 C-2.0828125 1.7425 -2.0828125 1.7425 -3.1875 2.5 C-6.14848659 4.07919285 -7.71253029 4.28178312 -11 4 C-7.2060585 0.99101192 -4.96966376 0 0 0 Z " fill="#2E80B7" transform="translate(481,188)"/>
<path d="M0 0 C0.8125 1.625 0.8125 1.625 1 4 C-0.46818136 6.24609835 -2.15852858 8.02378677 -4 10 C-4 5.75354935 -2.18249194 3.61475228 0 0 Z " fill="#D3EEF8" transform="translate(179,436)"/>
<path d="M0 0 C0.33 0.66 0.66 1.32 1 2 C0.22265625 3.9453125 0.22265625 3.9453125 -0.9375 6.125 C-1.31777344 6.84945313 -1.69804688 7.57390625 -2.08984375 8.3203125 C-2.39019531 8.87460937 -2.69054687 9.42890625 -3 10 C-3.66 10 -4.32 10 -5 10 C-3.66511872 6.40608886 -2.03977277 3.24509304 0 0 Z " fill="#D2EEF8" transform="translate(114,419)"/>
<path d="M0 0 C0.8125 1.625 0.8125 1.625 1 4 C-0.46818136 6.24609835 -2.15852858 8.02378677 -4 10 C-4 5.75354935 -2.18249194 3.61475228 0 0 Z " fill="#D1EDF7" transform="translate(147,362)"/>
<path d="M0 0 C0.33 0.99 0.66 1.98 1 3 C-0.98 4.98 -2.96 6.96 -5 9 C-5.66 8.67 -6.32 8.34 -7 8 C-4.69 5.36 -2.38 2.72 0 0 Z " fill="#3382B7" transform="translate(357,299)"/>
<path d="M0 0 C0.8125 1.625 0.8125 1.625 1 4 C-0.46818136 6.24609835 -2.15852858 8.02378677 -4 10 C-4 5.75354935 -2.18249194 3.61475228 0 0 Z " fill="#D1EDF7" transform="translate(211,252)"/>
<path d="M0 0 C1 3 1 3 -0.25 6.125 C-2 9 -2 9 -5 10 C-3.66511872 6.40608886 -2.03977277 3.24509304 0 0 Z " fill="#297CB4" transform="translate(236,156)"/>
<path d="M0 0 C0.33 0.99 0.66 1.98 1 3 C-0.65 4.65 -2.3 6.3 -4 8 C-3.50168276 4.31245243 -2.89932357 2.39509338 0 0 Z " fill="#277EB9" transform="translate(388,266)"/>
<path d="M0 0 C0.99 0.99 1.98 1.98 3 3 C1.92598892 5.91517292 1.22189824 7.77810176 -1 10 C-0.67 6.7 -0.34 3.4 0 0 Z " fill="#CEECF7" transform="translate(250,253)"/>
</svg>
